Ubuntu-Kernagic.ufo
<glyph name="exclam" format="1">
  <advance width="284"></advance>
  <unicode hex="0021"></unicode>
  <outline>
    <contour>
      <point x="109" y="216" type="line"></point>
      <point x="96" y="311.321"></point>
      <point x="88" y="394.993"></point>
      <point x="88" y="505" type="curve" smooth="yes"></point>
      <point x="88" y="693" type="line"></point>
      <point x="188" y="693" type="line"></point>
      <point x="188" y="505" type="line" smooth="yes"></point>
      <point x="188" y="394.962"></point>
      <point x="179" y="311.366"></point>
      <point x="167" y="216" type="curve"></point>
    </contour>
    <contour>
      <point x="138" y="121" type="curve" smooth="yes"></point>
      <point x="177" y="121"></point>
      <point x="205" y="91.8126"></point>
      <point x="205" y="54" type="curve" smooth="yes"></point>
      <point x="205" y="16.1958"></point>
      <point x="177" y="-13"></point>
      <point x="138" y="-13" type="curve" smooth="yes"></point>
      <point x="98" y="-13"></point>
      <point x="71" y="16.1874"></point>
      <point x="71" y="54" type="curve" smooth="yes"></point>
      <point x="71" y="91.8042"></point>
      <point x="98" y="121"></point>
    </contour>
  </outline>
</glyph>
<glyph name="numbersign" format="1">
  <advance width="564"></advance>
  <unicode hex="0023"></unicode>
  <outline>
    <contour>
      <point x="234" y="510" type="line"></point>
      <point x="396" y="510" type="line"></point>
      <point x="431" y="693" type="line"></point>
      <point x="515" y="693" type="line"></point>
      <point x="480" y="510" type="line"></point>
      <point x="568" y="510" type="line"></point>
      <point x="568" y="436" type="line"></point>
      <point x="465" y="436" type="line"></point>
      <point x="431" y="257" type="line"></point>
      <point x="568" y="257" type="line"></point>
      <point x="568" y="183" type="line"></point>
      <point x="417" y="183" type="line"></point>
      <point x="382" y="0" type="line"></point>
      <point x="298" y="0" type="line"></point>
      <point x="333" y="183" type="line"></point>
      <point x="171" y="183" type="line"></point>
      <point x="136" y="0" type="line"></point>
      <point x="52" y="0" type="line"></point>
      <point x="87" y="183" type="line"></point>
      <point x="0" y="183" type="line"></point>
      <point x="0" y="257" type="line"></point>
      <point x="101" y="257" type="line"></point>
      <point x="135" y="436" type="line"></point>
      <point x="0" y="436" type="line"></point>
      <point x="0" y="510" type="line"></point>
      <point x="150" y="510" type="line"></point>
      <point x="185" y="693" type="line"></point>
      <point x="269" y="693" type="line"></point>
    </contour>
    <contour>
      <point x="185" y="257" type="line"></point>
      <point x="347" y="257" type="line"></point>
      <point x="382" y="436" type="line"></point>
      <point x="220" y="436" type="line"></point>
    </contour>
  </outline>
</glyph>
<glyph name="dollar" format="1">
  <advance width="512"></advance>
  <unicode hex="0024"></unicode>
  <outline>
    <contour>
      <point x="54" y="133" type="line"></point>
      <point x="101" y="110.951"></point>
      <point x="155" y="95"></point>
      <point x="230" y="95" type="curve" smooth="yes"></point>
      <point x="281" y="95"></point>
      <point x="317" y="103.167"></point>
      <point x="338" y="119.5" type="curve" smooth="yes"></point>
      <point x="358" y="135.833"></point>
      <point x="369" y="156.667"></point>
      <point x="369" y="182" type="curve" smooth="yes"></point>
      <point x="369" y="223.275"></point>
      <point x="345" y="247.363"></point>
      <point x="319" y="265" type="curve" smooth="yes"></point>
      <point x="253" y="308.778"></point>
      <point x="154" y="322.262"></point>
      <point x="95" y="372.5" type="curve" smooth="yes"></point>
      <point x="65" y="397.844"></point>
      <point x="43" y="432.418"></point>
      <point x="43" y="487" type="curve" smooth="yes"></point>
      <point x="43" y="591.73"></point>
      <point x="112" y="646.646"></point>
      <point x="209" y="661" type="curve"></point>
      <point x="209" y="776" type="line"></point>
      <point x="292" y="776" type="line"></point>
      <point x="292" y="664" type="line"></point>
      <point x="342" y="661.722"></point>
      <point x="398" y="648.827"></point>
      <point x="434" y="636" type="curve"></point>
      <point x="415" y="558" type="line"></point>
      <point x="374" y="573.309"></point>
      <point x="327" y="586"></point>
      <point x="265" y="586" type="curve" smooth="yes"></point>
      <point x="195" y="586"></point>
      <point x="140" y="561.745"></point>
      <point x="140" y="498" type="curve" smooth="yes"></point>
      <point x="140" y="445.105"></point>
      <point x="180" y="423.997"></point>
      <point x="219" y="408" type="curve" smooth="yes"></point>
      <point x="308" y="371.561"></point>
      <point x="409" y="346.252"></point>
      <point x="452" y="264" type="curve" smooth="yes"></point>
      <point x="462" y="243.333"></point>
      <point x="468" y="218.333"></point>
      <point x="468" y="189" type="curve" smooth="yes"></point>
      <point x="468" y="80.8691"></point>
      <point x="396" y="32.803"></point>
      <point x="292" y="20" type="curve"></point>
      <point x="292" y="-109" type="line"></point>
      <point x="209" y="-109" type="line"></point>
      <point x="209" y="17" type="line"></point>
      <point x="133" y="19.1627"></point>
      <point x="72" y="34.1757"></point>
      <point x="29" y="58" type="curve"></point>
    </contour>
  </outline>
</glyph>
<glyph name="percent" format="1">
  <advance width="765"></advance>
  <unicode hex="0025"></unicode>
  <outline>
    <contour>
      <point x="-25" y="524" type="curve" smooth="yes"></point>
      <point x="-25" y="610.705"></point>
      <point x="7" y="670.825"></point>
      <point x="68" y="696" type="curve" smooth="yes"></point>
      <point x="87" y="704"></point>
      <point x="108" y="708"></point>
      <point x="131" y="708" type="curve" smooth="yes"></point>
      <point x="209" y="708"></point>
      <point x="256" y="662.769"></point>
      <point x="278" y="603" type="curve" smooth="yes"></point>
      <point x="286" y="580.333"></point>
      <point x="290" y="554"></point>
      <point x="290" y="524" type="curve" smooth="yes"></point>
      <point x="290" y="437.295"></point>
      <point x="254" y="377.175"></point>
      <point x="194" y="352" type="curve" smooth="yes"></point>
      <point x="174" y="344"></point>
      <point x="153" y="340"></point>
      <point x="131" y="340" type="curve" smooth="yes"></point>
      <point x="52" y="340"></point>
      <point x="5" y="385.231"></point>
      <point x="-13" y="445" type="curve" smooth="yes"></point>
      <point x="-21" y="467.667"></point>
      <point x="-25" y="494"></point>
    </contour>
    <contour>
      <point x="131" y="409" type="curve" smooth="yes"></point>
      <point x="189" y="409"></point>
      <point x="212" y="461.223"></point>
      <point x="212" y="524" type="curve" smooth="yes"></point>
      <point x="212" y="586.815"></point>
      <point x="189" y="639"></point>
      <point x="131" y="639" type="curve" smooth="yes"></point>
      <point x="72" y="639"></point>
      <point x="50" y="586.777"></point>
      <point x="50" y="524" type="curve" smooth="yes"></point>
      <point x="50" y="461.185"></point>
      <point x="72" y="409"></point>
    </contour>
    <contour>
      <point x="412" y="169" type="curve" smooth="yes"></point>
      <point x="412" y="255.705"></point>
      <point x="447" y="315.825"></point>
      <point x="508" y="341" type="curve" smooth="yes"></point>
      <point x="527" y="349"></point>
      <point x="548" y="353"></point>
      <point x="571" y="353" type="curve" smooth="yes"></point>
      <point x="649" y="353"></point>
      <point x="696" y="307.769"></point>
      <point x="718" y="248" type="curve" smooth="yes"></point>
      <point x="726" y="225.333"></point>
      <point x="730" y="199"></point>
      <point x="730" y="169" type="curve" smooth="yes"></point>
      <point x="730" y="82.2951"></point>
      <point x="694" y="22.1753"></point>
      <point x="634" y="-3" type="curve" smooth="yes"></point>
      <point x="614" y="-11"></point>
      <point x="593" y="-15"></point>
      <point x="571" y="-15" type="curve" smooth="yes"></point>
      <point x="492" y="-15"></point>
      <point x="445" y="30.2312"></point>
      <point x="424" y="90" type="curve" smooth="yes"></point>
      <point x="416" y="112.667"></point>
      <point x="412" y="139"></point>
    </contour>
    <contour>
      <point x="571" y="54" type="curve" smooth="yes"></point>
      <point x="629" y="54"></point>
      <point x="652" y="106.223"></point>
      <point x="652" y="169" type="curve" smooth="yes"></point>
      <point x="652" y="231.815"></point>
      <point x="629" y="284"></point>
      <point x="571" y="284" type="curve" smooth="yes"></point>
      <point x="512" y="284"></point>
      <point x="490" y="231.777"></point>
      <point x="490" y="169" type="curve" smooth="yes"></point>
      <point x="490" y="106.185"></point>
      <point x="512" y="54"></point>
    </contour>
    <contour>
      <point x="592" y="693" type="line"></point>
      <point x="201" y="0" type="line"></point>
      <point x="110" y="0" type="line"></point>
      <point x="501" y="693" type="line"></point>
    </contour>
  </outline>
</glyph>
<glyph name="ampersand" format="1">
  <advance width="633"></advance>
  <unicode hex="0026"></unicode>
  <outline>
    <contour>
      <point x="464" y="83" type="curve"></point>
      <point x="412" y="31.9342"></point>
      <point x="343" y="-9"></point>
      <point x="245" y="-9" type="curve" smooth="yes"></point>
      <point x="163" y="-9"></point>
      <point x="105" y="15.6249"></point>
      <point x="67" y="56.5" type="curve" smooth="yes"></point>
      <point x="38" y="87.5142"></point>
      <point x="19" y="131.14"></point>
      <point x="19" y="184" type="curve" smooth="yes"></point>
      <point x="19" y="294.071"></point>
      <point x="92" y="347.956"></point>
      <point x="167" y="384" type="curve"></point>
      <point x="117" y="433.333"></point>
      <point x="93" y="484.333"></point>
      <point x="93" y="537" type="curve" smooth="yes"></point>
      <point x="93" y="621.16"></point>
      <point x="137" y="674.088"></point>
      <point x="199" y="697" type="curve" smooth="yes"></point>
      <point x="221" y="705"></point>
      <point x="245" y="709"></point>
      <point x="271" y="709" type="curve" smooth="yes"></point>
      <point x="349" y="709"></point>
      <point x="405" y="673.344"></point>
      <point x="428" y="617" type="curve" smooth="yes"></point>
      <point x="435" y="598.333"></point>
      <point x="439" y="578.667"></point>
      <point x="439" y="558" type="curve" smooth="yes"></point>
      <point x="439" y="481.569"></point>
      <point x="396" y="435.825"></point>
      <point x="352" y="402" type="curve" smooth="yes"></point>
      <point x="335" y="389.333"></point>
      <point x="317" y="378"></point>
      <point x="299" y="368" type="curve"></point>
      <point x="461" y="203" type="line"></point>
      <point x="483" y="245"></point>
      <point x="498" y="291.667"></point>
      <point x="505" y="343" type="curve"></point>
      <point x="582" y="333" type="line"></point>
      <point x="575" y="263.98"></point>
      <point x="547" y="199.497"></point>
      <point x="515" y="147" type="curve"></point>
      <point x="556" y="101.809"></point>
      <point x="599" y="52.7725"></point>
      <point x="628" y="0" type="curve"></point>
      <point x="530" y="0" type="line"></point>
      <point x="512" y="29.0003"></point>
      <point x="487" y="57.4778"></point>
    </contour>
    <contour>
      <point x="216" y="334" type="line"></point>
      <point x="161" y="306.696"></point>
      <point x="112" y="268.439"></point>
      <point x="112" y="186" type="curve" smooth="yes"></point>
      <point x="112" y="132.353"></point>
      <point x="144" y="97.2189"></point>
      <point x="183" y="79.5" type="curve" smooth="yes"></point>
      <point x="200" y="71.8333"></point>
      <point x="221" y="68"></point>
      <point x="247" y="68" type="curve" smooth="yes"></point>
      <point x="319" y="68"></point>
      <point x="372" y="97.7789"></point>
      <point x="411" y="137" type="curve"></point>
    </contour>
    <contour>
      <point x="271" y="636" type="curve" smooth="yes"></point>
      <point x="214" y="636"></point>
      <point x="180" y="598.314"></point>
      <point x="180" y="544" type="curve" smooth="yes"></point>
      <point x="180" y="500.667"></point>
      <point x="202" y="458.333"></point>
      <point x="248" y="417" type="curve"></point>
      <point x="290" y="438.204"></point>
      <point x="328" y="463.957"></point>
      <point x="346" y="508.5" type="curve" smooth="yes"></point>
      <point x="352" y="522.167"></point>
      <point x="355" y="537.667"></point>
      <point x="355" y="555" type="curve" smooth="yes"></point>
      <point x="355" y="602.606"></point>
      <point x="320" y="636"></point>
    </contour>
  </outline>
</glyph>
<glyph name="quotesingle" format="1">
  <advance width="288"></advance>
  <unicode hex="0027"></unicode>
  <outline>
    <contour>
      <point x="118" y="501" type="line"></point>
      <point x="106" y="565.965"></point>
      <point x="97" y="638.508"></point>
      <point x="97" y="711" type="curve" smooth="yes"></point>
      <point x="97" y="760" type="line"></point>
      <point x="194" y="760" type="line"></point>
      <point x="194" y="710" type="line" smooth="yes"></point>
      <point x="194" y="638.503"></point>
      <point x="183" y="565.329"></point>
      <point x="173" y="501" type="curve"></point>
    </contour>
  </outline>
</glyph>
<glyph name="parenleft" format="1">
  <advance width="362"></advance>
  <unicode hex="0028"></unicode>
  <outline>
    <contour>
      <point x="308" y="738" type="line"></point>
      <point x="220" y="625.306"></point>
      <point x="162" y="487.525"></point>
      <point x="162" y="299" type="curve" smooth="yes"></point>
      <point x="162" y="110.62"></point>
      <point x="220" y="-27.4081"></point>
      <point x="308" y="-140" type="curve"></point>
      <point x="242" y="-185" type="line"></point>
      <point x="146" y="-68.8887"></point>
      <point x="69" y="96.049"></point>
      <point x="69" y="299" type="curve" smooth="yes"></point>
      <point x="69" y="501.839"></point>
      <point x="146" y="666.992"></point>
      <point x="242" y="783" type="curve"></point>
    </contour>
  </outline>
</glyph>
<glyph name="parenright" format="1">
  <advance width="443"></advance>
  <unicode hex="0029"></unicode>
  <outline>
    <contour>
      <point x="120" y="-140" type="line"></point>
      <point x="207" y="-27.3055"></point>
      <point x="266" y="110.475"></point>
      <point x="266" y="299" type="curve" smooth="yes"></point>
      <point x="266" y="487.38"></point>
      <point x="207" y="625.408"></point>
      <point x="120" y="738" type="curve"></point>
      <point x="186" y="783" type="line"></point>
      <point x="281" y="666.889"></point>
      <point x="359" y="501.951"></point>
      <point x="359" y="299" type="curve" smooth="yes"></point>
      <point x="359" y="96.1609"></point>
      <point x="281" y="-68.9924"></point>
      <point x="186" y="-185" type="curve"></point>
    </contour>
  </outline>
</glyph>
<glyph name="asterisk" format="1">
  <advance width="472"></advance>
  <unicode hex="002A"></unicode>
  <outline>
    <contour>
      <point x="210" y="525" type="curve"></point>
      <point x="199" y="577.127"></point>
      <point x="187" y="625.171"></point>
      <point x="187" y="685" type="curve" smooth="yes"></point>
      <point x="187" y="693" type="line"></point>
      <point x="277" y="693" type="line"></point>
      <point x="277" y="685" type="line" smooth="yes"></point>
      <point x="277" y="625.211"></point>
      <point x="264" y="577.091"></point>
      <point x="254" y="525" type="curve"></point>
      <point x="303" y="552.699"></point>
      <point x="348" y="579.627"></point>
      <point x="407" y="599" type="curve"></point>
      <point x="435" y="515" type="line"></point>
      <point x="382" y="495.366"></point>
      <point x="330" y="489.67"></point>
      <point x="265" y="485" type="curve"></point>
      <point x="311" y="445.413"></point>
      <point x="350" y="412.317"></point>
      <point x="386" y="362" type="curve"></point>
      <point x="313" y="311" type="line"></point>
      <point x="280" y="360.214"></point>
      <point x="258" y="407.111"></point>
      <point x="232" y="462" type="curve"></point>
      <point x="206" y="407.136"></point>
      <point x="183" y="360.181"></point>
      <point x="151" y="311" type="curve"></point>
      <point x="78" y="362" type="line"></point>
      <point x="113" y="412.244"></point>
      <point x="152" y="445.453"></point>
      <point x="199" y="485" type="curve"></point>
      <point x="133" y="489.669"></point>
      <point x="81" y="495.369"></point>
      <point x="29" y="515" type="curve"></point>
      <point x="57" y="599" type="line"></point>
      <point x="115" y="579.638"></point>
      <point x="160" y="552.69"></point>
    </contour>
  </outline>
</glyph>
<glyph name="plus" format="1">
  <advance width="572"></advance>
  <unicode hex="002B"></unicode>
  <outline>
    <contour>
      <point x="59" y="339" type="line"></point>
      <point x="248" y="339" type="line"></point>
      <point x="248" y="545" type="line"></point>
      <point x="328" y="545" type="line"></point>
      <point x="328" y="339" type="line"></point>
      <point x="517" y="339" type="line"></point>
      <point x="517" y="260" type="line"></point>
      <point x="328" y="260" type="line"></point>
      <point x="328" y="53" type="line"></point>
      <point x="248" y="53" type="line"></point>
      <point x="248" y="260" type="line"></point>
      <point x="59" y="260" type="line"></point>
    </contour>
  </outline>
</glyph>
<glyph name="comma" format="1">
  <advance width="284"></advance>
  <unicode hex="002C"></unicode>
  <outline>
    <contour>
      <point x="103" y="66" type="curve" smooth="yes"></point>
      <point x="103" y="82.8172"></point>
      <point x="102" y="98.8465"></point>
      <point x="101" y="114" type="curve"></point>
      <point x="202" y="114" type="line"></point>
      <point x="202" y="108.667"></point>
      <point x="203" y="103.5"></point>
      <point x="203" y="98.5" type="curve" smooth="yes"></point>
      <point x="203" y="83" type="line" smooth="yes"></point>
      <point x="203" y="-12.3568"></point>
      <point x="171" y="-93.5948"></point>
      <point x="134" y="-159" type="curve"></point>
      <point x="62" y="-136" type="line"></point>
      <point x="90" y="-78.5784"></point>
      <point x="103" y="-11.006"></point>
    </contour>
  </outline>
</glyph>
<glyph name="hyphen" format="1">
  <advance width="420"></advance>
  <unicode hex="002D"></unicode>
  <outline>
    <contour>
      <point x="84" y="343" type="line"></point>
      <point x="331" y="343" type="line"></point>
      <point x="331" y="256" type="line"></point>
      <point x="84" y="256" type="line"></point>
    </contour>
  </outline>
</glyph>
<glyph name="period" format="1">
  <advance width="316"></advance>
  <unicode hex="002E"></unicode>
  <outline>
    <contour>
      <point x="160" y="121" type="curve" smooth="yes"></point>
      <point x="199" y="121"></point>
      <point x="227" y="91.8126"></point>
      <point x="227" y="54" type="curve" smooth="yes"></point>
      <point x="227" y="16.1958"></point>
      <point x="199" y="-13"></point>
      <point x="160" y="-13" type="curve" smooth="yes"></point>
      <point x="120" y="-13"></point>
      <point x="93" y="16.1874"></point>
      <point x="93" y="54" type="curve" smooth="yes"></point>
      <point x="93" y="91.8042"></point>
      <point x="120" y="121"></point>
    </contour>
  </outline>
</glyph>
<glyph name="slash" format="1">
  <advance width="457"></advance>
  <unicode hex="002F"></unicode>
  <outline>
    <contour>
      <point x="111" y="-185" type="line"></point>
      <point x="16" y="-185" type="line"></point>
      <point x="355" y="783" type="line"></point>
      <point x="448" y="783" type="line"></point>
    </contour>
  </outline>
</glyph>
<glyph name="zero" format="1">
  <advance width="552"></advance>
  <unicode hex="0030"></unicode>
  <outline>
    <contour>
      <point x="42" y="347" type="curve" smooth="yes"></point>
      <point x="42" y="463"></point>
      <point x="62" y="552.333"></point>
      <point x="103" y="615" type="curve" smooth="yes"></point>
      <point x="144" y="677.667"></point>
      <point x="201" y="709"></point>
      <point x="274" y="709" type="curve" smooth="yes"></point>
      <point x="346" y="709"></point>
      <point x="403" y="677.667"></point>
      <point x="444" y="615" type="curve" smooth="yes"></point>
      <point x="485" y="552.333"></point>
      <point x="506" y="463"></point>
      <point x="506" y="347" type="curve" smooth="yes"></point>
      <point x="506" y="231"></point>
      <point x="485" y="141.667"></point>
      <point x="444" y="79" type="curve" smooth="yes"></point>
      <point x="403" y="16.3333"></point>
      <point x="346" y="-15"></point>
      <point x="274" y="-15" type="curve" smooth="yes"></point>
      <point x="201" y="-15"></point>
      <point x="144" y="16.3333"></point>
      <point x="103" y="79" type="curve" smooth="yes"></point>
      <point x="62" y="141.667"></point>
      <point x="42" y="231"></point>
    </contour>
    <contour>
      <point x="408" y="347" type="curve" smooth="yes"></point>
      <point x="408" y="453.825"></point>
      <point x="394" y="555.569"></point>
      <point x="338" y="604.5" type="curve" smooth="yes"></point>
      <point x="320" y="619.5"></point>
      <point x="299" y="627"></point>
      <point x="274" y="627" type="curve" smooth="yes"></point>
      <point x="217" y="627"></point>
      <point x="186" y="587.594"></point>
      <point x="168" y="544" type="curve" smooth="yes"></point>
      <point x="147" y="492.513"></point>
      <point x="140" y="420.533"></point>
      <point x="140" y="347" type="curve" smooth="yes"></point>
      <point x="140" y="240.175"></point>
      <point x="153" y="138.431"></point>
      <point x="210" y="89.5" type="curve" smooth="yes"></point>
      <point x="227" y="74.5"></point>
      <point x="248" y="67"></point>
      <point x="274" y="67" type="curve" smooth="yes"></point>
      <point x="330" y="67"></point>
      <point x="361" y="106.406"></point>
      <point x="379" y="150" type="curve" smooth="yes"></point>
      <point x="400" y="201.487"></point>
      <point x="408" y="273.467"></point>
    </contour>
  </outline>
</glyph>
<glyph name="one" format="1">
  <advance width="433"></advance>
  <unicode hex="0031"></unicode>
  <outline>
    <contour>
      <point x="75" y="550" type="line"></point>
      <point x="157" y="581.978"></point>
      <point x="229" y="628.648"></point>
      <point x="285" y="693" type="curve"></point>
      <point x="351" y="693" type="line"></point>
      <point x="351" y="0" type="line"></point>
      <point x="258" y="0" type="line"></point>
      <point x="258" y="564" type="line"></point>
      <point x="218" y="527.994"></point>
      <point x="160" y="498.766"></point>
      <point x="104" y="480" type="curve"></point>
    </contour>
  </outline>
</glyph>
<glyph name="two" format="1">
  <advance width="483"></advance>
  <unicode hex="0032"></unicode>
  <outline>
    <contour>
      <point x="222" y="709" type="curve" smooth="yes"></point>
      <point x="358" y="709"></point>
      <point x="440" y="646.754"></point>
      <point x="440" y="516" type="curve" smooth="yes"></point>
      <point x="440" y="459.398"></point>
      <point x="413" y="416.788"></point>
      <point x="387" y="380.5" type="curve" smooth="yes"></point>
      <point x="342" y="319.805"></point>
      <point x="286" y="269.014"></point>
      <point x="233" y="215" type="curve" smooth="yes"></point>
      <point x="206" y="187.102"></point>
      <point x="177" y="152.267"></point>
      <point x="157" y="119" type="curve" smooth="yes"></point>
      <point x="148" y="103.667"></point>
      <point x="144" y="90.3333"></point>
      <point x="144" y="79" type="curve"></point>
      <point x="463" y="79" type="line"></point>
      <point x="463" y="0" type="line"></point>
      <point x="43" y="0" type="line"></point>
      <point x="42" y="4"></point>
      <point x="42" y="8"></point>
      <point x="42" y="12" type="curve" smooth="yes"></point>
      <point x="42" y="23" type="line" smooth="yes"></point>
      <point x="42" y="91.9157"></point>
      <point x="67" y="143.786"></point>
      <point x="98" y="187" type="curve" smooth="yes"></point>
      <point x="144" y="253.471"></point>
      <point x="207" y="307.348"></point>
      <point x="262" y="364.5" type="curve" smooth="yes"></point>
      <point x="289" y="392.962"></point>
      <point x="314" y="422.962"></point>
      <point x="330" y="460" type="curve" smooth="yes"></point>
      <point x="337" y="476.667"></point>
      <point x="341" y="494.333"></point>
      <point x="341" y="513" type="curve" smooth="yes"></point>
      <point x="341" y="586.161"></point>
      <point x="295" y="626"></point>
      <point x="223" y="626" type="curve" smooth="yes"></point>
      <point x="168" y="626"></point>
      <point x="123" y="602.939"></point>
      <point x="95" y="577.5" type="curve" smooth="yes"></point>
      <point x="86" y="569.833"></point>
      <point x="79" y="564"></point>
      <point x="75" y="560" type="curve"></point>
      <point x="29" y="626" type="line"></point>
      <point x="58" y="658.671"></point>
      <point x="104" y="685.37"></point>
      <point x="155" y="700" type="curve" smooth="yes"></point>
      <point x="175" y="706"></point>
      <point x="198" y="709"></point>
    </contour>
  </outline>
</glyph>
<glyph name="three" format="1">
  <advance width="538"></advance>
  <unicode hex="0033"></unicode>
  <outline>
    <contour>
      <point x="457" y="527" type="curve" smooth="yes"></point>
      <point x="457" y="450.977"></point>
      <point x="404" y="400.471"></point>
      <point x="351" y="376" type="curve"></point>
      <point x="411" y="358.038"></point>
      <point x="454" y="319.563"></point>
      <point x="476" y="262" type="curve" smooth="yes"></point>
      <point x="484" y="242"></point>
      <point x="488" y="219.667"></point>
      <point x="488" y="195" type="curve" smooth="yes"></point>
      <point x="488" y="87.1774"></point>
      <point x="426" y="28.4254"></point>
      <point x="343" y="1" type="curve" smooth="yes"></point>
      <point x="310" y="-9.66667"></point>
      <point x="271" y="-15"></point>
      <point x="227" y="-15" type="curve" smooth="yes"></point>
      <point x="173" y="-15"></point>
      <point x="120" y="-2.44688"></point>
      <point x="80" y="11" type="curve" smooth="yes"></point>
      <point x="68" y="15"></point>
      <point x="59" y="18.3333"></point>
      <point x="54" y="21" type="curve"></point>
      <point x="72" y="102" type="line"></point>
      <point x="83" y="96.6667"></point>
      <point x="102" y="89.6667"></point>
      <point x="128" y="81" type="curve" smooth="yes"></point>
      <point x="154" y="72.3333"></point>
      <point x="187" y="68"></point>
      <point x="225" y="68" type="curve" smooth="yes"></point>
      <point x="284" y="68"></point>
      <point x="326" y="79.6667"></point>
      <point x="352" y="103" type="curve" smooth="yes"></point>
      <point x="378" y="126.333"></point>
      <point x="391" y="157.667"></point>
      <point x="391" y="197" type="curve" smooth="yes"></point>
      <point x="391" y="298.986"></point>
      <point x="303" y="331"></point>
      <point x="202" y="331" type="curve" smooth="yes"></point>
      <point x="178" y="331" type="line"></point>
      <point x="178" y="407" type="line"></point>
      <point x="211" y="407" type="line" smooth="yes"></point>
      <point x="293" y="407"></point>
      <point x="361" y="438.424"></point>
      <point x="361" y="522" type="curve" smooth="yes"></point>
      <point x="361" y="593.077"></point>
      <point x="311" y="627"></point>
      <point x="241" y="627" type="curve" smooth="yes"></point>
      <point x="181" y="627"></point>
      <point x="137" y="606.392"></point>
      <point x="103" y="584" type="curve"></point>
      <point x="67" y="655" type="line"></point>
      <point x="110" y="683.927"></point>
      <point x="171" y="709"></point>
      <point x="244" y="709" type="curve" smooth="yes"></point>
      <point x="346" y="709"></point>
      <point x="415" y="672.274"></point>
      <point x="444" y="599.5" type="curve" smooth="yes"></point>
      <point x="452" y="577.167"></point>
      <point x="457" y="553"></point>
    </contour>
  </outline>
</glyph>
<glyph name="four" format="1">
  <advance width="524"></advance>
  <unicode hex="0034"></unicode>
  <outline>
    <contour>
      <point x="30" y="240" type="line"></point>
      <point x="61" y="312.662"></point>
      <point x="110" y="394.076"></point>
      <point x="156" y="463" type="curve" smooth="yes"></point>
      <point x="209" y="542.357"></point>
      <point x="275" y="627.793"></point>
      <point x="341" y="693" type="curve"></point>
      <point x="430" y="693" type="line"></point>
      <point x="430" y="253" type="line"></point>
      <point x="512" y="253" type="line"></point>
      <point x="512" y="177" type="line"></point>
      <point x="430" y="177" type="line"></point>
      <point x="430" y="0" type="line"></point>
      <point x="340" y="0" type="line"></point>
      <point x="340" y="177" type="line"></point>
      <point x="30" y="177" type="line"></point>
    </contour>
    <contour>
      <point x="340" y="583" type="line"></point>
      <point x="253" y="490.882"></point>
      <point x="176" y="374.327"></point>
      <point x="120" y="253" type="curve"></point>
      <point x="340" y="253" type="line"></point>
    </contour>
  </outline>
</glyph>
<glyph name="five" format="1">
  <advance width="526"></advance>
  <unicode hex="0035"></unicode>
  <outline>
    <contour>
      <point x="195" y="614" type="line"></point>
      <point x="191" y="556.055"></point>
      <point x="187" y="482.404"></point>
      <point x="180" y="426" type="curve"></point>
      <point x="280" y="422"></point>
      <point x="354" y="400"></point>
      <point x="401" y="360" type="curve" smooth="yes"></point>
      <point x="448" y="320"></point>
      <point x="472" y="265.667"></point>
      <point x="472" y="197" type="curve" smooth="yes"></point>
      <point x="472" y="89.1599"></point>
      <point x="413" y="28.7711"></point>
      <point x="330" y="1" type="curve" smooth="yes"></point>
      <point x="298" y="-9.66667"></point>
      <point x="260" y="-15"></point>
      <point x="216" y="-15" type="curve" smooth="yes"></point>
      <point x="162" y="-15"></point>
      <point x="111" y="-2.30028"></point>
      <point x="72" y="11" type="curve" smooth="yes"></point>
      <point x="60" y="15"></point>
      <point x="51" y="18.3333"></point>
      <point x="46" y="21" type="curve"></point>
      <point x="64" y="102" type="line"></point>
      <point x="75" y="96.6667"></point>
      <point x="93" y="89.6667"></point>
      <point x="119" y="81" type="curve" smooth="yes"></point>
      <point x="145" y="72.3333"></point>
      <point x="176" y="68"></point>
      <point x="214" y="68" type="curve" smooth="yes"></point>
      <point x="306" y="68"></point>
      <point x="375" y="102.702"></point>
      <point x="375" y="192" type="curve" smooth="yes"></point>
      <point x="375" y="289.567"></point>
      <point x="314" y="322.994"></point>
      <point x="228" y="339.5" type="curve" smooth="yes"></point>
      <point x="191" y="346.5"></point>
      <point x="145" y="350"></point>
      <point x="89" y="350" type="curve"></point>
      <point x="102" y="463.006"></point>
      <point x="108" y="573.032"></point>
      <point x="114" y="693" type="curve"></point>
      <point x="448" y="693" type="line"></point>
      <point x="448" y="614" type="line"></point>
    </contour>
  </outline>
</glyph>
<glyph name="six" format="1">
  <advance width="524"></advance>
  <unicode hex="0036"></unicode>
  <outline>
    <contour>
      <point x="274" y="-15" type="curve" smooth="yes"></point>
      <point x="111" y="-15"></point>
      <point x="41" y="109.119"></point>
      <point x="41" y="278" type="curve" smooth="yes"></point>
      <point x="41" y="480.029"></point>
      <point x="126" y="612.478"></point>
      <point x="273" y="667.5" type="curve" smooth="yes"></point>
      <point x="322" y="685.833"></point>
      <point x="377" y="695.333"></point>
      <point x="439" y="696" type="curve"></point>
      <point x="446" y="618" type="line"></point>
      <point x="273" y="615.082"></point>
      <point x="180" y="542.937"></point>
      <point x="149" y="397" type="curve"></point>
      <point x="182" y="412.308"></point>
      <point x="227" y="425"></point>
      <point x="275" y="425" type="curve" smooth="yes"></point>
      <point x="413" y="425"></point>
      <point x="491" y="346.524"></point>
      <point x="491" y="211" type="curve" smooth="yes"></point>
      <point x="491" y="112.579"></point>
      <point x="438" y="40.7142"></point>
      <point x="371" y="6" type="curve" smooth="yes"></point>
      <point x="343" y="-8"></point>
      <point x="311" y="-15"></point>
    </contour>
    <contour>
      <point x="395" y="209" type="curve" smooth="yes"></point>
      <point x="395" y="297.963"></point>
      <point x="353" y="349"></point>
      <point x="265" y="349" type="curve" smooth="yes"></point>
      <point x="214" y="349"></point>
      <point x="177" y="339.227"></point>
      <point x="140" y="323" type="curve"></point>
      <point x="138" y="308.919"></point>
      <point x="138" y="293.09"></point>
      <point x="138" y="278" type="curve" smooth="yes"></point>
      <point x="138" y="188.951"></point>
      <point x="153" y="115.242"></point>
      <point x="207" y="79.5" type="curve" smooth="yes"></point>
      <point x="224" y="67.8333"></point>
      <point x="246" y="62"></point>
      <point x="273" y="62" type="curve" smooth="yes"></point>
      <point x="353" y="62"></point>
      <point x="395" y="129.882"></point>
    </contour>
  </outline>
</glyph>
<glyph name="seven" format="1">
  <advance width="443"></advance>
  <unicode hex="0037"></unicode>
  <outline>
    <contour>
      <point x="90" y="0" type="line"></point>
      <point x="98" y="119.753"></point>
      <point x="135" y="242.169"></point>
      <point x="174" y="340.5" type="curve" smooth="yes"></point>
      <point x="212" y="437.748"></point>
      <point x="265" y="543.174"></point>
      <point x="324" y="612" type="curve"></point>
      <point x="-10" y="612" type="line"></point>
      <point x="-10" y="693" type="line"></point>
      <point x="428" y="693" type="line"></point>
      <point x="428" y="616" type="line"></point>
      <point x="373" y="552.761"></point>
      <point x="318" y="453.671"></point>
      <point x="279" y="362.5" type="curve" smooth="yes"></point>
      <point x="235" y="260.875"></point>
      <point x="195" y="131.687"></point>
      <point x="187" y="0" type="curve"></point>
    </contour>
  </outline>
</glyph>
<glyph name="eight" format="1">
  <advance width="512"></advance>
  <unicode hex="0038"></unicode>
  <outline>
    <contour>
      <point x="483" y="180" type="curve"></point>
      <point x="483" y="83.0312"></point>
      <point x="428" y="24.6718"></point>
      <point x="354" y="-0.5" type="curve" smooth="yes"></point>
      <point x="325" y="-10.1667"></point>
      <point x="292" y="-15"></point>
      <point x="255" y="-15" type="curve" smooth="yes"></point>
      <point x="173" y="-15"></point>
      <point x="114" y="9.56048"></point>
      <point x="77" y="50" type="curve" smooth="yes"></point>
      <point x="48" y="80.2688"></point>
      <point x="29" y="123.558"></point>
      <point x="29" y="175" type="curve" smooth="yes"></point>
      <point x="29" y="263.065"></point>
      <point x="87" y="320.167"></point>
      <point x="143" y="354" type="curve"></point>
      <point x="77" y="391.333"></point>
      <point x="45" y="446.333"></point>
      <point x="45" y="519" type="curve" smooth="yes"></point>
      <point x="45" y="609.488"></point>
      <point x="102" y="666.945"></point>
      <point x="169" y="693.5" type="curve" smooth="yes"></point>
      <point x="195" y="703.833"></point>
      <point x="224" y="709"></point>
      <point x="256" y="709" type="curve" smooth="yes"></point>
      <point x="328" y="709"></point>
      <point x="382" y="684.888"></point>
      <point x="417" y="648.5" type="curve" smooth="yes"></point>
      <point x="445" y="619.618"></point>
      <point x="466" y="578.281"></point>
      <point x="466" y="528" type="curve" smooth="yes"></point>
      <point x="466" y="443.321"></point>
      <point x="414" y="390.695"></point>
      <point x="363" y="357" type="curve"></point>
      <point x="441" y="319.667"></point>
      <point x="481" y="260.667"></point>
    </contour>
    <contour>
      <point x="217" y="324" type="curve"></point>
      <point x="164" y="294.729"></point>
      <point x="123" y="250.271"></point>
      <point x="123" y="174" type="curve" smooth="yes"></point>
      <point x="123" y="121.502"></point>
      <point x="154" y="90.0303"></point>
      <point x="193" y="73" type="curve" smooth="yes"></point>
      <point x="209" y="65.6667"></point>
      <point x="230" y="62"></point>
      <point x="256" y="62" type="curve" smooth="yes"></point>
      <point x="318" y="62"></point>
      <point x="363" y="88.9948"></point>
      <point x="381" y="133" type="curve" smooth="yes"></point>
      <point x="386" y="146.333"></point>
      <point x="389" y="160"></point>
      <point x="389" y="174" type="curve" smooth="yes"></point>
      <point x="389" y="274.25"></point>
      <point x="300" y="305.198"></point>
    </contour>
    <contour>
      <point x="373" y="529" type="curve" smooth="yes"></point>
      <point x="373" y="574.548"></point>
      <point x="342" y="605.764"></point>
      <point x="310" y="621.5" type="curve" smooth="yes"></point>
      <point x="295" y="628.5"></point>
      <point x="277" y="632"></point>
      <point x="256" y="632" type="curve" smooth="yes"></point>
      <point x="197" y="632"></point>
      <point x="159" y="604.571"></point>
      <point x="144" y="562.5" type="curve" smooth="yes"></point>
      <point x="140" y="550.167"></point>
      <point x="138" y="538"></point>
      <point x="138" y="526" type="curve" smooth="yes"></point>
      <point x="138" y="465.845"></point>
      <point x="174" y="429.631"></point>
      <point x="215" y="407" type="curve" smooth="yes"></point>
      <point x="233" y="397"></point>
      <point x="255" y="389"></point>
      <point x="281" y="383" type="curve"></point>
      <point x="309" y="399.667"></point>
      <point x="331" y="419.167"></point>
      <point x="348" y="441.5" type="curve" smooth="yes"></point>
      <point x="364" y="463.833"></point>
      <point x="373" y="493"></point>
    </contour>
  </outline>
</glyph>
<glyph name="nine" format="1">
  <advance width="538"></advance>
  <unicode hex="0039"></unicode>
  <outline>
    <contour>
      <point x="387" y="298" type="curve"></point>
      <point x="353" y="282.712"></point>
      <point x="307" y="271"></point>
      <point x="260" y="271" type="curve" smooth="yes"></point>
      <point x="121" y="271"></point>
      <point x="44" y="348.079"></point>
      <point x="44" y="484" type="curve" smooth="yes"></point>
      <point x="44" y="543.702"></point>
      <point x="67" y="597.436"></point>
      <point x="96" y="634" type="curve" smooth="yes"></point>
      <point x="130" y="676.705"></point>
      <point x="184" y="709"></point>
      <point x="261" y="709" type="curve" smooth="yes"></point>
      <point x="427" y="709"></point>
      <point x="494" y="583.702"></point>
      <point x="494" y="416" type="curve" smooth="yes"></point>
      <point x="494" y="142.988"></point>
      <point x="357" y="-0.659523"></point>
      <point x="87" y="-2" type="curve"></point>
      <point x="84" y="76" type="line"></point>
      <point x="261" y="76"></point>
      <point x="357" y="148.17"></point>
    </contour>
    <contour>
      <point x="140" y="486" type="curve" smooth="yes"></point>
      <point x="140" y="397.002"></point>
      <point x="181" y="347"></point>
      <point x="270" y="347" type="curve" smooth="yes"></point>
      <point x="320" y="347"></point>
      <point x="359" y="356.768"></point>
      <point x="396" y="373" type="curve"></point>
      <point x="396" y="380.333"></point>
      <point x="397" y="387.5"></point>
      <point x="397" y="394.5" type="curve" smooth="yes"></point>
      <point x="397" y="416" type="line" smooth="yes"></point>
      <point x="397" y="504.627"></point>
      <point x="380" y="578.903"></point>
      <point x="328" y="614.5" type="curve" smooth="yes"></point>
      <point x="310" y="626.167"></point>
      <point x="288" y="632"></point>
      <point x="262" y="632" type="curve" smooth="yes"></point>
      <point x="181" y="632"></point>
      <point x="140" y="564.97"></point>
    </contour>
  </outline>
</glyph>
<glyph name="less" format="1">
  <advance width="524"></advance>
  <unicode hex="003C"></unicode>
  <outline>
    <contour>
      <point x="135" y="299" type="line"></point>
      <point x="490" y="153" type="line"></point>
      <point x="464" y="76" type="line"></point>
      <point x="32" y="259" type="line"></point>
      <point x="32" y="339" type="line"></point>
      <point x="464" y="522" type="line"></point>
      <point x="490" y="445" type="line"></point>
    </contour>
  </outline>
</glyph>
<glyph name="equal" format="1">
  <advance width="546"></advance>
  <unicode hex="003D"></unicode>
  <outline>
    <contour>
      <point x="48" y="232" type="line"></point>
      <point x="506" y="232" type="line"></point>
      <point x="506" y="153" type="line"></point>
      <point x="48" y="153" type="line"></point>
    </contour>
    <contour>
      <point x="48" y="445" type="line"></point>
      <point x="506" y="445" type="line"></point>
      <point x="506" y="366" type="line"></point>
      <point x="48" y="366" type="line"></point>
    </contour>
  </outline>
</glyph>
<glyph name="greater" format="1">
  <advance width="551"></advance>
  <unicode hex="003E"></unicode>
  <outline>
    <contour>
      <point x="48" y="445" type="line"></point>
      <point x="74" y="522" type="line"></point>
      <point x="506" y="339" type="line"></point>
      <point x="506" y="259" type="line"></point>
      <point x="74" y="76" type="line"></point>
      <point x="48" y="153" type="line"></point>
      <point x="403" y="299" type="line"></point>
    </contour>
  </outline>
</glyph>
<glyph name="question" format="1">
  <advance width="434"></advance>
  <unicode hex="003F"></unicode>
  <outline>
    <contour>
      <point x="286" y="536" type="curve" smooth="yes"></point>
      <point x="286" y="596.705"></point>
      <point x="243" y="631"></point>
      <point x="180" y="631" type="curve" smooth="yes"></point>
      <point x="136" y="631"></point>
      <point x="93" y="619.667"></point>
      <point x="51" y="597" type="curve"></point>
      <point x="25" y="669" type="line"></point>
      <point x="68" y="692.093"></point>
      <point x="126" y="709"></point>
      <point x="192" y="709" type="curve" smooth="yes"></point>
      <point x="262" y="709"></point>
      <point x="311" y="689.261"></point>
      <point x="344" y="654" type="curve" smooth="yes"></point>
      <point x="368" y="627.436"></point>
      <point x="383" y="589.457"></point>
      <point x="383" y="544" type="curve" smooth="yes"></point>
      <point x="383" y="495.249"></point>
      <point x="361" y="462.047"></point>
      <point x="338" y="434" type="curve" smooth="yes"></point>
      <point x="299" y="387.972"></point>
      <point x="249" y="353.782"></point>
      <point x="222" y="297.5" type="curve" smooth="yes"></point>
      <point x="213" y="279.833"></point>
      <point x="209" y="260"></point>
      <point x="209" y="238" type="curve" smooth="yes"></point>
      <point x="209" y="227" type="line" smooth="yes"></point>
      <point x="209" y="223"></point>
      <point x="209" y="219.333"></point>
      <point x="210" y="216" type="curve"></point>
      <point x="132" y="216" type="line"></point>
      <point x="129" y="229.333"></point>
      <point x="128" y="243.333"></point>
      <point x="128" y="258" type="curve" smooth="yes"></point>
      <point x="128" y="304.391"></point>
      <point x="147" y="337.277"></point>
      <point x="169" y="364.5" type="curve" smooth="yes"></point>
      <point x="202" y="406.563"></point>
      <point x="248" y="439.21"></point>
      <point x="274" y="488" type="curve" smooth="yes"></point>
      <point x="282" y="502.667"></point>
      <point x="286" y="518.667"></point>
    </contour>
    <contour>
      <point x="176" y="121" type="curve" smooth="yes"></point>
      <point x="215" y="121"></point>
      <point x="243" y="91.8126"></point>
      <point x="243" y="54" type="curve" smooth="yes"></point>
      <point x="243" y="16.1958"></point>
      <point x="215" y="-13"></point>
      <point x="176" y="-13" type="curve" smooth="yes"></point>
      <point x="136" y="-13"></point>
      <point x="109" y="16.1874"></point>
      <point x="109" y="54" type="curve" smooth="yes"></point>
      <point x="109" y="91.8042"></point>
      <point x="136" y="121"></point>
    </contour>
  </outline>
</glyph>
<glyph name="at" format="1">
  <advance width="905"></advance>
  <unicode hex="0040"></unicode>
  <outline>
    <contour>
      <point x="639" y="-133" type="line"></point>
      <point x="605" y="-144.913"></point>
      <point x="533" y="-153"></point>
      <point x="482" y="-153" type="curve" smooth="yes"></point>
      <point x="278" y="-153"></point>
      <point x="144" y="-61.9699"></point>
      <point x="82" y="84.5" type="curve" smooth="yes"></point>
      <point x="59" y="138.833"></point>
      <point x="48" y="203.333"></point>
      <point x="48" y="278" type="curve" smooth="yes"></point>
      <point x="48" y="423.286"></point>
      <point x="97" y="531.18"></point>
      <point x="173" y="601.5" type="curve" smooth="yes"></point>
      <point x="242" y="665.371"></point>
      <point x="341" y="709"></point>
      <point x="466" y="709" type="curve" smooth="yes"></point>
      <point x="586" y="709"></point>
      <point x="682" y="666.223"></point>
      <point x="749" y="605.5" type="curve" smooth="yes"></point>
      <point x="817" y="542.646"></point>
      <point x="868" y="449.026"></point>
      <point x="868" y="322" type="curve" smooth="yes"></point>
      <point x="868" y="234.712"></point>
      <point x="847" y="163.76"></point>
      <point x="811" y="114.5" type="curve" smooth="yes"></point>
      <point x="781" y="74.5148"></point>
      <point x="736" y="43"></point>
      <point x="673" y="43" type="curve" smooth="yes"></point>
      <point x="631" y="43"></point>
      <point x="604" y="55.0787"></point>
      <point x="585" y="76" type="curve"></point>
      <point x="557" y="60.9672"></point>
      <point x="512" y="47"></point>
      <point x="470" y="47" type="curve" smooth="yes"></point>
      <point x="364" y="47"></point>
      <point x="298" y="100.288"></point>
      <point x="269" y="179" type="curve" smooth="yes"></point>
      <point x="258" y="207.667"></point>
      <point x="253" y="241"></point>
      <point x="253" y="279" type="curve" smooth="yes"></point>
      <point x="253" y="387.775"></point>
      <point x="306" y="459.987"></point>
      <point x="384" y="493" type="curve" smooth="yes"></point>
      <point x="412" y="505"></point>
      <point x="445" y="511"></point>
      <point x="481" y="511" type="curve" smooth="yes"></point>
      <point x="537" y="511"></point>
      <point x="601" y="500.356"></point>
      <point x="640" y="487" type="curve"></point>
      <point x="640" y="181" type="line" smooth="yes"></point>
      <point x="640" y="146.21"></point>
      <point x="649" y="123"></point>
      <point x="680" y="123" type="curve" smooth="yes"></point>
      <point x="720" y="123"></point>
      <point x="743" y="156.658"></point>
      <point x="757" y="188" type="curve" smooth="yes"></point>
      <point x="773" y="224.923"></point>
      <point x="782" y="275.97"></point>
      <point x="782" y="328" type="curve" smooth="yes"></point>
      <point x="782" y="421.176"></point>
      <point x="745" y="493.984"></point>
      <point x="697" y="544" type="curve" smooth="yes"></point>
      <point x="645" y="596.943"></point>
      <point x="567" y="634"></point>
      <point x="466" y="634" type="curve" smooth="yes"></point>
      <point x="361" y="634"></point>
      <point x="280" y="595.184"></point>
      <point x="227" y="539.5" type="curve" smooth="yes"></point>
      <point x="169" y="480.547"></point>
      <point x="134" y="392.521"></point>
      <point x="134" y="278" type="curve" smooth="yes"></point>
      <point x="134" y="103.021"></point>
      <point x="213" y="-8.81949"></point>
      <point x="342" y="-54.5" type="curve" smooth="yes"></point>
      <point x="384" y="-69.5"></point>
      <point x="431" y="-77"></point>
      <point x="482" y="-77" type="curve" smooth="yes"></point>
      <point x="538" y="-77"></point>
      <point x="594" y="-71.4384"></point>
      <point x="629" y="-59" type="curve"></point>
    </contour>
    <contour>
      <point x="347" y="279" type="curve" smooth="yes"></point>
      <point x="347" y="192.106"></point>
      <point x="389" y="124"></point>
      <point x="473" y="124" type="curve" smooth="yes"></point>
      <point x="503" y="124"></point>
      <point x="533" y="131.105"></point>
      <point x="554" y="142" type="curve"></point>
      <point x="550" y="157.595"></point>
      <point x="549" y="174.909"></point>
      <point x="549" y="193" type="curve" smooth="yes"></point>
      <point x="549" y="428" type="line"></point>
      <point x="535" y="432.453"></point>
      <point x="508" y="434"></point>
      <point x="488" y="434" type="curve" smooth="yes"></point>
      <point x="395" y="434"></point>
      <point x="347" y="370.006"></point>
    </contour>
  </outline>
</glyph>
<glyph name="A" format="1">
  <advance width="643"></advance>
  <unicode hex="0041"></unicode>
  <outline>
    <contour>
      <point x="0" y="0" type="line"></point>
      <point x="83" y="243.752"></point>
      <point x="168" y="472.186"></point>
      <point x="274" y="693" type="curve"></point>
      <point x="363" y="693" type="line"></point>
      <point x="468" y="472.4"></point>
      <point x="553" y="243.23"></point>
      <point x="642" y="0" type="curve"></point>
      <point x="536" y="0" type="line"></point>
      <point x="513" y="60.0055"></point>
      <point x="494" y="116.229"></point>
      <point x="473" y="177" type="curve"></point>
      <point x="159" y="177" type="line"></point>
      <point x="96" y="0" type="line"></point>
    </contour>
    <contour>
      <point x="445" y="257" type="line"></point>
      <point x="403" y="369.212"></point>
      <point x="362" y="478.341"></point>
      <point x="316" y="582" type="curve"></point>
      <point x="267" y="479.137"></point>
      <point x="227" y="369.902"></point>
      <point x="187" y="257" type="curve"></point>
    </contour>
  </outline>
</glyph>
<glyph name="B" format="1">
  <advance width="617"></advance>
  <unicode hex="0042"></unicode>
  <outline>
    <contour>
      <point x="439" y="370" type="curve"></point>
      <point x="516" y="347.12"></point>
      <point x="572" y="301.422"></point>
      <point x="572" y="203" type="curve" smooth="yes"></point>
      <point x="572" y="133.667"></point>
      <point x="546" y="81.5"></point>
      <point x="495" y="46.5" type="curve" smooth="yes"></point>
      <point x="444" y="11.5"></point>
      <point x="363" y="-6"></point>
      <point x="253" y="-6" type="curve" smooth="yes"></point>
      <point x="188" y="-6"></point>
      <point x="119" y="-2.37559"></point>
      <point x="66" y="11" type="curve"></point>
      <point x="66" y="683" type="line"></point>
      <point x="119" y="696.318"></point>
      <point x="187" y="700"></point>
      <point x="252" y="700" type="curve" smooth="yes"></point>
      <point x="371" y="700"></point>
      <point x="470" y="676.725"></point>
      <point x="516" y="604" type="curve" smooth="yes"></point>
      <point x="530" y="580.667"></point>
      <point x="538" y="552"></point>
      <point x="538" y="518" type="curve" smooth="yes"></point>
      <point x="538" y="439.264"></point>
      <point x="496" y="392.922"></point>
    </contour>
    <contour>
      <point x="472" y="202" type="curve" smooth="yes"></point>
      <point x="472" y="301.328"></point>
      <point x="387" y="323"></point>
      <point x="287" y="323" type="curve" smooth="yes"></point>
      <point x="162" y="323" type="line"></point>
      <point x="162" y="79" type="line"></point>
      <point x="192" y="76.2553"></point>
      <point x="223" y="75"></point>
      <point x="259" y="75" type="curve" smooth="yes"></point>
      <point x="345" y="75"></point>
      <point x="419" y="88.4331"></point>
      <point x="454" y="139" type="curve" smooth="yes"></point>
      <point x="466" y="155.667"></point>
      <point x="472" y="176.667"></point>
    </contour>
    <contour>
      <point x="258" y="619" type="curve" smooth="yes"></point>
      <point x="216" y="619"></point>
      <point x="194" y="618.791"></point>
      <point x="162" y="615" type="curve"></point>
      <point x="162" y="401" type="line"></point>
      <point x="264" y="401" type="line" smooth="yes"></point>
      <point x="336" y="401"></point>
      <point x="396" y="414.129"></point>
      <point x="424" y="458" type="curve" smooth="yes"></point>
      <point x="433" y="472"></point>
      <point x="438" y="489.667"></point>
      <point x="438" y="511" type="curve" smooth="yes"></point>
      <point x="438" y="598.679"></point>
      <point x="346" y="619"></point>
    </contour>
  </outline>
</glyph>
<glyph name="C" format="1">
  <advance width="617"></advance>
  <unicode hex="0043"></unicode>
  <outline>
    <contour>
      <point x="382" y="70" type="curve" smooth="yes"></point>
      <point x="455" y="70"></point>
      <point x="516" y="87.5508"></point>
      <point x="559" y="109" type="curve"></point>
      <point x="584" y="29" type="line"></point>
      <point x="567" y="17.4281"></point>
      <point x="540" y="8.86151"></point>
      <point x="514" y="2" type="curve" smooth="yes"></point>
      <point x="474" y="-8.16587"></point>
      <point x="424" y="-15"></point>
      <point x="373" y="-15" type="curve" smooth="yes"></point>
      <point x="211" y="-15"></point>
      <point x="113" y="70.0209"></point>
      <point x="70" y="192.5" type="curve" smooth="yes"></point>
      <point x="54" y="237.5"></point>
      <point x="47" y="289"></point>
      <point x="47" y="347" type="curve" smooth="yes"></point>
      <point x="47" y="519.085"></point>
      <point x="127" y="636.024"></point>
      <point x="250" y="685" type="curve" smooth="yes"></point>
      <point x="290" y="701"></point>
      <point x="332" y="709"></point>
      <point x="378" y="709" type="curve" smooth="yes"></point>
      <point x="459" y="709"></point>
      <point x="531" y="692.742"></point>
      <point x="579" y="661" type="curve"></point>
      <point x="551" y="581" type="line"></point>
      <point x="523" y="599.395"></point>
      <point x="479" y="612.442"></point>
      <point x="439" y="619.5" type="curve" smooth="yes"></point>
      <point x="422" y="622.5"></point>
      <point x="405" y="624"></point>
      <point x="388" y="624" type="curve" smooth="yes"></point>
      <point x="266" y="624"></point>
      <point x="196" y="556.195"></point>
      <point x="166" y="462.5" type="curve" smooth="yes"></point>
      <point x="155" y="428.167"></point>
      <point x="150" y="389.667"></point>
      <point x="150" y="347" type="curve" smooth="yes"></point>
      <point x="150" y="220.72"></point>
      <point x="193" y="129.87"></point>
      <point x="280" y="90" type="curve" smooth="yes"></point>
      <point x="309" y="76.6667"></point>
      <point x="343" y="70"></point>
    </contour>
  </outline>
</glyph>
<glyph name="D" format="1">
  <advance width="695"></advance>
  <unicode hex="0044"></unicode>
  <outline>
    <contour>
      <point x="69" y="683" type="line"></point>
      <point x="118" y="694.977"></point>
      <point x="193" y="700"></point>
      <point x="253" y="700" type="curve" smooth="yes"></point>
      <point x="432" y="700"></point>
      <point x="556" y="631.233"></point>
      <point x="610" y="503.5" type="curve" smooth="yes"></point>
      <point x="628" y="459.167"></point>
      <point x="638" y="407"></point>
      <point x="638" y="347" type="curve" smooth="yes"></point>
      <point x="638" y="164.513"></point>
      <point x="549" y="58.0016"></point>
      <point x="409" y="15.5" type="curve" smooth="yes"></point>
      <point x="361" y="1.16667"></point>
      <point x="309" y="-6"></point>
      <point x="253" y="-6" type="curve" smooth="yes"></point>
      <point x="193" y="-6"></point>
      <point x="118" y="-0.956785"></point>
      <point x="69" y="11" type="curve"></point>
    </contour>
    <contour>
      <point x="166" y="82" type="line"></point>
      <point x="192" y="79.0943"></point>
      <point x="217" y="78.9995"></point>
      <point x="253" y="78.9995" type="curve" smooth="yes"></point>
      <point x="255" y="78.9995"></point>
      <point x="258" y="79"></point>
      <point x="261" y="79" type="curve" smooth="yes"></point>
      <point x="439" y="79"></point>
      <point x="535" y="172.369"></point>
      <point x="535" y="347" type="curve" smooth="yes"></point>
      <point x="535" y="521.612"></point>
      <point x="439" y="615"></point>
      <point x="261" y="615" type="curve" smooth="yes"></point>
      <point x="257" y="615"></point>
      <point x="254" y="615.001"></point>
      <point x="251" y="615.001" type="curve" smooth="yes"></point>
      <point x="216" y="615.001"></point>
      <point x="191" y="614.887"></point>
      <point x="166" y="612" type="curve"></point>
    </contour>
  </outline>
</glyph>
<glyph name="E" format="1">
  <advance width="546"></advance>
  <unicode hex="0045"></unicode>
  <outline>
    <contour>
      <point x="64" y="0" type="line"></point>
      <point x="64" y="693" type="line"></point>
      <point x="487" y="693" type="line"></point>
      <point x="487" y="610" type="line"></point>
      <point x="161" y="610" type="line"></point>
      <point x="161" y="404" type="line"></point>
      <point x="451" y="404" type="line"></point>
      <point x="451" y="323" type="line"></point>
      <point x="161" y="323" type="line"></point>
      <point x="161" y="83" type="line"></point>
      <point x="512" y="83" type="line"></point>
      <point x="512" y="0" type="line"></point>
    </contour>
  </outline>
</glyph>
<glyph name="F" format="1">
  <advance width="493"></advance>
  <unicode hex="0046"></unicode>
  <outline>
    <contour>
      <point x="53" y="0" type="line"></point>
      <point x="53" y="693" type="line"></point>
      <point x="471" y="693" type="line"></point>
      <point x="471" y="610" type="line"></point>
      <point x="150" y="610" type="line"></point>
      <point x="150" y="401" type="line"></point>
      <point x="435" y="401" type="line"></point>
      <point x="435" y="319" type="line"></point>
      <point x="150" y="319" type="line"></point>
      <point x="150" y="0" type="line"></point>
    </contour>
  </outline>
</glyph>
<glyph name="G" format="1">
  <advance width="663"></advance>
  <unicode hex="0047"></unicode>
  <outline>
    <contour>
      <point x="390" y="70" type="curve" smooth="yes"></point>
      <point x="433" y="70"></point>
      <point x="475" y="74.2928"></point>
      <point x="504" y="83" type="curve"></point>
      <point x="504" y="341" type="line"></point>
      <point x="601" y="341" type="line"></point>
      <point x="601" y="17" type="line"></point>
      <point x="558" y="2.95867"></point>
      <point x="503" y="-5.19059"></point>
      <point x="450" y="-10.5" type="curve" smooth="yes"></point>
      <point x="426" y="-12.8333"></point>
      <point x="403" y="-14"></point>
      <point x="379" y="-14" type="curve" smooth="yes"></point>
      <point x="217" y="-14"></point>
      <point x="119" y="70.9857"></point>
      <point x="76" y="193" type="curve" smooth="yes"></point>
      <point x="60" y="237.667"></point>
      <point x="53" y="289"></point>
      <point x="53" y="347" type="curve" smooth="yes"></point>
      <point x="53" y="519.273"></point>
      <point x="133" y="636.238"></point>
      <point x="256" y="685" type="curve" smooth="yes"></point>
      <point x="296" y="701"></point>
      <point x="340" y="709"></point>
      <point x="386" y="709" type="curve" smooth="yes"></point>
      <point x="471" y="709"></point>
      <point x="547" y="694.23"></point>
      <point x="597" y="661" type="curve"></point>
      <point x="566" y="580" type="line"></point>
      <point x="527" y="605.109"></point>
      <point x="455" y="624"></point>
      <point x="391" y="624" type="curve" smooth="yes"></point>
      <point x="271" y="624"></point>
      <point x="203" y="554.674"></point>
      <point x="173" y="462.5" type="curve" smooth="yes"></point>
      <point x="161" y="428.167"></point>
      <point x="156" y="389.667"></point>
      <point x="156" y="347" type="curve" smooth="yes"></point>
      <point x="156" y="220.11"></point>
      <point x="200" y="130.052"></point>
      <point x="287" y="90" type="curve" smooth="yes"></point>
      <point x="316" y="76.6667"></point>
      <point x="350" y="70"></point>
    </contour>
  </outline>
</glyph>
<glyph name="H" format="1">
  <advance width="665"></advance>
  <unicode hex="0048"></unicode>
  <outline>
    <contour>
      <point x="501" y="693" type="line"></point>
      <point x="598" y="693" type="line"></point>
      <point x="598" y="0" type="line"></point>
      <point x="501" y="0" type="line"></point>
      <point x="501" y="320" type="line"></point>
      <point x="162" y="320" type="line"></point>
      <point x="162" y="0" type="line"></point>
      <point x="65" y="0" type="line"></point>
      <point x="65" y="693" type="line"></point>
      <point x="162" y="693" type="line"></point>
      <point x="162" y="404" type="line"></point>
      <point x="501" y="404" type="line"></point>
    </contour>
  </outline>
</glyph>
<glyph name="I" format="1">
  <advance width="316"></advance>
  <unicode hex="0049"></unicode>
  <outline>
    <contour>
      <point x="105" y="693" type="line"></point>
      <point x="202" y="693" type="line"></point>
      <point x="202" y="0" type="line"></point>
      <point x="105" y="0" type="line"></point>
    </contour>
  </outline>
</glyph>
<glyph name="J" format="1">
  <advance width="522"></advance>
  <unicode hex="004A"></unicode>
  <outline>
    <contour>
      <point x="220" y="70" type="curve" smooth="yes"></point>
      <point x="324" y="70"></point>
      <point x="358" y="121.922"></point>
      <point x="358" y="232" type="curve" smooth="yes"></point>
      <point x="358" y="693" type="line"></point>
      <point x="455" y="693" type="line"></point>
      <point x="455" y="223" type="line" smooth="yes"></point>
      <point x="455" y="67.0565"></point>
      <point x="383" y="-15"></point>
      <point x="225" y="-15" type="curve" smooth="yes"></point>
      <point x="162" y="-15"></point>
      <point x="110" y="0.331713"></point>
      <point x="71" y="22.5" type="curve" smooth="yes"></point>
      <point x="59" y="28.8333"></point>
      <point x="50" y="35"></point>
      <point x="44" y="41" type="curve"></point>
      <point x="82" y="118" type="line"></point>
      <point x="114" y="94.4481"></point>
      <point x="159" y="70"></point>
    </contour>
  </outline>
</glyph>
<glyph name="K" format="1">
  <advance width="601"></advance>
  <unicode hex="004B"></unicode>
  <outline>
    <contour>
      <point x="578" y="693" type="line"></point>
      <point x="479" y="585.221"></point>
      <point x="367" y="470.853"></point>
      <point x="263" y="369" type="curve"></point>
      <point x="326" y="324.538"></point>
      <point x="393" y="260.571"></point>
      <point x="448" y="201" type="curve" smooth="yes"></point>
      <point x="503" y="141.072"></point>
      <point x="562" y="69.3007"></point>
      <point x="602" y="0" type="curve"></point>
      <point x="488" y="0" type="line"></point>
      <point x="424" y="99.4288"></point>
      <point x="337" y="191.799"></point>
      <point x="248" y="266" type="curve" smooth="yes"></point>
      <point x="218" y="290.667"></point>
      <point x="190" y="311.667"></point>
      <point x="162" y="329" type="curve"></point>
      <point x="162" y="0" type="line"></point>
      <point x="65" y="0" type="line"></point>
      <point x="65" y="693" type="line"></point>
      <point x="162" y="693" type="line"></point>
      <point x="162" y="387" type="line"></point>
      <point x="239" y="460.247"></point>
      <point x="325" y="547.754"></point>
      <point x="399" y="625.5" type="curve" smooth="yes"></point>
      <point x="423" y="651.167"></point>
      <point x="444" y="673.667"></point>
      <point x="461" y="693" type="curve"></point>
    </contour>
  </outline>
</glyph>
<glyph name="L" format="1">
  <advance width="538"></advance>
  <unicode hex="004C"></unicode>
  <outline>
    <contour>
      <point x="485" y="84" type="line"></point>
      <point x="485" y="0" type="line"></point>
      <point x="68" y="0" type="line"></point>
      <point x="68" y="693" type="line"></point>
      <point x="165" y="693" type="line"></point>
      <point x="165" y="84" type="line"></point>
    </contour>
  </outline>
</glyph>
<glyph name="M" format="1">
  <advance width="853"></advance>
  <unicode hex="004D"></unicode>
  <outline>
    <contour>
      <point x="423" y="213" type="curve"></point>
      <point x="493" y="371.609"></point>
      <point x="568" y="551.064"></point>
      <point x="656" y="693" type="curve"></point>
      <point x="741" y="693" type="line"></point>
      <point x="763" y="469.667"></point>
      <point x="780" y="238.667"></point>
      <point x="792" y="0" type="curve"></point>
      <point x="697" y="0" type="line"></point>
      <point x="690" y="176.775"></point>
      <point x="682" y="369.528"></point>
      <point x="667" y="533" type="curve"></point>
      <point x="631" y="472.017"></point>
      <point x="597" y="394.969"></point>
      <point x="564" y="325.5" type="curve" smooth="yes"></point>
      <point x="529" y="250.582"></point>
      <point x="492" y="170.065"></point>
      <point x="462" y="96" type="curve"></point>
      <point x="384" y="96" type="line"></point>
      <point x="341" y="198.234"></point>
      <point x="287" y="311.37"></point>
      <point x="241" y="411.5" type="curve" smooth="yes"></point>
      <point x="221" y="453.841"></point>
      <point x="198" y="499.109"></point>
      <point x="179" y="533" type="curve"></point>
      <point x="163" y="369.643"></point>
      <point x="155" y="176.638"></point>
      <point x="149" y="0" type="curve"></point>
      <point x="54" y="0" type="line"></point>
      <point x="64" y="235.738"></point>
      <point x="78" y="473.74"></point>
      <point x="105" y="693" type="curve"></point>
      <point x="190" y="693" type="line"></point>
      <point x="277" y="550.985"></point>
      <point x="352" y="371.294"></point>
    </contour>
  </outline>
</glyph>
<glyph name="N" format="1">
  <advance width="695"></advance>
  <unicode hex="004E"></unicode>
  <outline>
    <contour>
      <point x="547" y="0" type="line"></point>
      <point x="451" y="160.564"></point>
      <point x="341" y="323.072"></point>
      <point x="228" y="467" type="curve" smooth="yes"></point>
      <point x="206" y="495"></point>
      <point x="185" y="519.667"></point>
      <point x="167" y="541" type="curve"></point>
      <point x="167" y="0" type="line"></point>
      <point x="72" y="0" type="line"></point>
      <point x="72" y="693" type="line"></point>
      <point x="149" y="693" type="line"></point>
      <point x="217" y="620.129"></point>
      <point x="292" y="524.495"></point>
      <point x="355" y="439.5" type="curve" smooth="yes"></point>
      <point x="416" y="357.921"></point>
      <point x="483" y="262.414"></point>
      <point x="533" y="180" type="curve"></point>
      <point x="533" y="693" type="line"></point>
      <point x="628" y="693" type="line"></point>
      <point x="628" y="0" type="line"></point>
    </contour>
  </outline>
</glyph>
<glyph name="O" format="1">
  <advance width="725"></advance>
  <unicode hex="004F"></unicode>
  <outline>
    <contour>
      <point x="35" y="347" type="curve" smooth="yes"></point>
      <point x="35" y="521.123"></point>
      <point x="114" y="638.344"></point>
      <point x="239" y="686" type="curve" smooth="yes"></point>
      <point x="279" y="701.333"></point>
      <point x="322" y="709"></point>
      <point x="368" y="709" type="curve" smooth="yes"></point>
      <point x="526" y="709"></point>
      <point x="624" y="621.519"></point>
      <point x="670" y="504" type="curve" smooth="yes"></point>
      <point x="688" y="458.667"></point>
      <point x="697" y="406.333"></point>
      <point x="697" y="347" type="curve" smooth="yes"></point>
      <point x="697" y="173.843"></point>
      <point x="618" y="55.9181"></point>
      <point x="494" y="8" type="curve" smooth="yes"></point>
      <point x="454" y="-7.33333"></point>
      <point x="412" y="-15"></point>
      <point x="368" y="-15" type="curve" smooth="yes"></point>
      <point x="208" y="-15"></point>
      <point x="107" y="71.5262"></point>
      <point x="61" y="190" type="curve" smooth="yes"></point>
      <point x="43" y="235.333"></point>
      <point x="35" y="287.667"></point>
    </contour>
    <contour>
      <point x="137" y="347" type="curve" smooth="yes"></point>
      <point x="137" y="221.082"></point>
      <point x="184" y="129.065"></point>
      <point x="270" y="89.5" type="curve" smooth="yes"></point>
      <point x="298" y="76.5"></point>
      <point x="330" y="70"></point>
      <point x="366" y="70" type="curve" smooth="yes"></point>
      <point x="483" y="70"></point>
      <point x="549" y="140.59"></point>
      <point x="578" y="232.5" type="curve" smooth="yes"></point>
      <point x="588" y="266.833"></point>
      <point x="594" y="305"></point>
      <point x="594" y="347" type="curve" smooth="yes"></point>
      <point x="594" y="472.72"></point>
      <point x="546" y="564.706"></point>
      <point x="461" y="604.5" type="curve" smooth="yes"></point>
      <point x="433" y="617.5"></point>
      <point x="401" y="624"></point>
      <point x="366" y="624" type="curve" smooth="yes"></point>
      <point x="247" y="624"></point>
      <point x="181" y="553.72"></point>
      <point x="153" y="461.5" type="curve" smooth="yes"></point>
      <point x="142" y="427.167"></point>
      <point x="137" y="389"></point>
    </contour>
  </outline>
</glyph>
<glyph name="P" format="1">
  <advance width="601"></advance>
  <unicode hex="0050"></unicode>
  <outline>
    <contour>
      <point x="65" y="683" type="line"></point>
      <point x="114" y="694.977"></point>
      <point x="189" y="700"></point>
      <point x="249" y="700" type="curve" smooth="yes"></point>
      <point x="422" y="700"></point>
      <point x="552" y="641.429"></point>
      <point x="552" y="479" type="curve" smooth="yes"></point>
      <point x="552" y="304.746"></point>
      <point x="415" y="257"></point>
      <point x="239" y="257" type="curve" smooth="yes"></point>
      <point x="162" y="257" type="line"></point>
      <point x="162" y="0" type="line"></point>
      <point x="65" y="0" type="line"></point>
    </contour>
    <contour>
      <point x="450" y="480" type="curve" smooth="yes"></point>
      <point x="450" y="586.359"></point>
      <point x="363" y="615"></point>
      <point x="257" y="615" type="curve" smooth="yes"></point>
      <point x="215" y="615"></point>
      <point x="184" y="614"></point>
      <point x="162" y="612" type="curve"></point>
      <point x="162" y="340" type="line"></point>
      <point x="235" y="340" type="line" smooth="yes"></point>
      <point x="354" y="340"></point>
      <point x="450" y="361.579"></point>
    </contour>
  </outline>
</glyph>
<glyph name="Q" format="1">
  <advance width="748"></advance>
  <unicode hex="0051"></unicode>
  <outline>
    <contour>
      <point x="45" y="347" type="curve" smooth="yes"></point>
      <point x="45" y="521.123"></point>
      <point x="124" y="638.344"></point>
      <point x="249" y="686" type="curve" smooth="yes"></point>
      <point x="289" y="701.333"></point>
      <point x="332" y="709"></point>
      <point x="378" y="709" type="curve" smooth="yes"></point>
      <point x="536" y="709"></point>
      <point x="634" y="621.519"></point>
      <point x="680" y="504" type="curve" smooth="yes"></point>
      <point x="698" y="458.667"></point>
      <point x="707" y="406.333"></point>
      <point x="707" y="347" type="curve" smooth="yes"></point>
      <point x="707" y="192.897"></point>
      <point x="645" y="86.8645"></point>
      <point x="548" y="30.5" type="curve" smooth="yes"></point>
      <point x="516" y="12.1667"></point>
      <point x="483" y="-0.333333"></point>
      <point x="447" y="-7" type="curve"></point>
      <point x="448" y="-43.7859"></point>
      <point x="486" y="-64.6005"></point>
      <point x="517" y="-77" type="curve" smooth="yes"></point>
      <point x="556" y="-92.6118"></point>
      <point x="608" y="-103.684"></point>
      <point x="658" y="-109" type="curve"></point>
      <point x="635" y="-185" type="line"></point>
      <point x="505" y="-167.503"></point>
      <point x="374" y="-135.835"></point>
      <point x="350" y="-14" type="curve"></point>
      <point x="204" y="-4.74192"></point>
      <point x="111" y="80.9806"></point>
      <point x="69" y="197" type="curve" smooth="yes"></point>
      <point x="53" y="240.333"></point>
      <point x="45" y="290.333"></point>
    </contour>
    <contour>
      <point x="147" y="347" type="curve" smooth="yes"></point>
      <point x="147" y="221.082"></point>
      <point x="194" y="129.065"></point>
      <point x="280" y="89.5" type="curve" smooth="yes"></point>
      <point x="308" y="76.5"></point>
      <point x="340" y="70"></point>
      <point x="376" y="70" type="curve" smooth="yes"></point>
      <point x="493" y="70"></point>
      <point x="559" y="140.59"></point>
      <point x="588" y="232.5" type="curve" smooth="yes"></point>
      <point x="598" y="266.833"></point>
      <point x="604" y="305"></point>
      <point x="604" y="347" type="curve" smooth="yes"></point>
      <point x="604" y="472.72"></point>
      <point x="556" y="564.706"></point>
      <point x="471" y="604.5" type="curve" smooth="yes"></point>
      <point x="443" y="617.5"></point>
      <point x="411" y="624"></point>
      <point x="376" y="624" type="curve" smooth="yes"></point>
      <point x="257" y="624"></point>
      <point x="191" y="553.72"></point>
      <point x="163" y="461.5" type="curve" smooth="yes"></point>
      <point x="152" y="427.167"></point>
      <point x="147" y="389"></point>
    </contour>
  </outline>
</glyph>
<glyph name="R" format="1">
  <advance width="569"></advance>
  <unicode hex="0052"></unicode>
  <outline>
    <contour>
      <point x="533" y="481" type="curve" smooth="yes"></point>
      <point x="533" y="377.305"></point>
      <point x="472" y="318.144"></point>
      <point x="389" y="290" type="curve"></point>
      <point x="437" y="229.325"></point>
      <point x="489" y="154.564"></point>
      <point x="531" y="83" type="curve" smooth="yes"></point>
      <point x="548" y="54.3333"></point>
      <point x="563" y="26.6667"></point>
      <point x="575" y="0" type="curve"></point>
      <point x="469" y="0" type="line"></point>
      <point x="417" y="97.02"></point>
      <point x="354" y="191.952"></point>
      <point x="288" y="272" type="curve"></point>
      <point x="279" y="271.333"></point>
      <point x="270" y="271"></point>
      <point x="261" y="271" type="curve" smooth="yes"></point>
      <point x="147" y="271" type="line"></point>
      <point x="147" y="0" type="line"></point>
      <point x="50" y="0" type="line"></point>
      <point x="50" y="683" type="line"></point>
      <point x="99" y="694.977"></point>
      <point x="174" y="700"></point>
      <point x="234" y="700" type="curve" smooth="yes"></point>
      <point x="406" y="700"></point>
      <point x="533" y="642.578"></point>
    </contour>
    <contour>
      <point x="431" y="482" type="curve" smooth="yes"></point>
      <point x="431" y="587.099"></point>
      <point x="347" y="615"></point>
      <point x="242" y="615" type="curve" smooth="yes"></point>
      <point x="200" y="615"></point>
      <point x="169" y="614"></point>
      <point x="147" y="612" type="curve"></point>
      <point x="147" y="351" type="line"></point>
      <point x="216" y="351" type="line" smooth="yes"></point>
      <point x="334" y="351"></point>
      <point x="431" y="364.469"></point>
    </contour>
  </outline>
</glyph>
<glyph name="S" format="1">
  <advance width="572"></advance>
  <unicode hex="0053"></unicode>
  <outline>
    <contour>
      <point x="514" y="174" type="curve" smooth="yes"></point>
      <point x="514" y="39.4363"></point>
      <point x="403" y="-15"></point>
      <point x="260" y="-15" type="curve" smooth="yes"></point>
      <point x="173" y="-15"></point>
      <point x="100" y="4.00552"></point>
      <point x="46" y="34" type="curve"></point>
      <point x="75" y="114" type="line"></point>
      <point x="90" y="105.333"></point>
      <point x="113" y="95.6667"></point>
      <point x="145" y="85" type="curve" smooth="yes"></point>
      <point x="176" y="74.3333"></point>
      <point x="214" y="69"></point>
      <point x="260" y="69" type="curve" smooth="yes"></point>
      <point x="361" y="69"></point>
      <point x="412" y="103.667"></point>
      <point x="412" y="173" type="curve" smooth="yes"></point>
      <point x="412" y="242.922"></point>
      <point x="360" y="274.291"></point>
      <point x="309" y="295" type="curve" smooth="yes"></point>
      <point x="219" y="331.613"></point>
      <point x="116" y="355.132"></point>
      <point x="76" y="441" type="curve" smooth="yes"></point>
      <point x="66" y="461.667"></point>
      <point x="62" y="486.667"></point>
      <point x="62" y="516" type="curve" smooth="yes"></point>
      <point x="62" y="645.542"></point>
      <point x="160" y="709"></point>
      <point x="295" y="709" type="curve" smooth="yes"></point>
      <point x="365" y="709"></point>
      <point x="446" y="691.991"></point>
      <point x="485" y="666" type="curve"></point>
      <point x="454" y="587" type="line"></point>
      <point x="419" y="608.639"></point>
      <point x="357" y="625"></point>
      <point x="295" y="625" type="curve" smooth="yes"></point>
      <point x="237" y="625"></point>
      <point x="193" y="607.124"></point>
      <point x="172" y="570.5" type="curve" smooth="yes"></point>
      <point x="165" y="558.167"></point>
      <point x="162" y="543.667"></point>
      <point x="162" y="527" type="curve" smooth="yes"></point>
      <point x="162" y="464.844"></point>
      <point x="206" y="439.98"></point>
      <point x="250" y="420" type="curve" smooth="yes"></point>
      <point x="368" y="366.792"></point>
      <point x="514" y="342.692"></point>
    </contour>
  </outline>
</glyph>
<glyph name="T" format="1">
  <advance width="591"></advance>
  <unicode hex="0054"></unicode>
  <outline>
    <contour>
      <point x="642" y="693" type="line"></point>
      <point x="642" y="609" type="line"></point>
      <point x="424" y="609" type="line"></point>
      <point x="424" y="0" type="line"></point>
      <point x="327" y="0" type="line"></point>
      <point x="327" y="609" type="line"></point>
      <point x="109" y="609" type="line"></point>
      <point x="109" y="693" type="line"></point>
    </contour>
  </outline>
</glyph>
<glyph name="U" format="1">
  <advance width="633"></advance>
  <unicode hex="0055"></unicode>
  <outline>
    <contour>
      <point x="318" y="71" type="curve" smooth="yes"></point>
      <point x="434" y="71"></point>
      <point x="484" y="149.85"></point>
      <point x="484" y="269" type="curve" smooth="yes"></point>
      <point x="484" y="693" type="line"></point>
      <point x="581" y="693" type="line"></point>
      <point x="581" y="258" type="line" smooth="yes"></point>
      <point x="581" y="129.142"></point>
      <point x="527" y="45.0342"></point>
      <point x="435" y="6" type="curve" smooth="yes"></point>
      <point x="402" y="-8"></point>
      <point x="363" y="-15"></point>
      <point x="318" y="-15" type="curve" smooth="yes"></point>
      <point x="146" y="-15"></point>
      <point x="55" y="87.7897"></point>
      <point x="55" y="258" type="curve" smooth="yes"></point>
      <point x="55" y="693" type="line"></point>
      <point x="152" y="693" type="line"></point>
      <point x="152" y="269" type="line" smooth="yes"></point>
      <point x="152" y="199.667"></point>
      <point x="167" y="149.333"></point>
      <point x="198" y="118" type="curve" smooth="yes"></point>
      <point x="228" y="86.6667"></point>
      <point x="268" y="71"></point>
    </contour>
  </outline>
</glyph>
<glyph name="V" format="1">
  <advance width="595"></advance>
  <unicode hex="0056"></unicode>
  <outline>
    <contour>
      <point x="296" y="115" type="curve"></point>
      <point x="373" y="294.37"></point>
      <point x="441" y="494.475"></point>
      <point x="508" y="693" type="curve"></point>
      <point x="612" y="693" type="line"></point>
      <point x="527" y="448.002"></point>
      <point x="440" y="222.717"></point>
      <point x="340" y="0" type="curve"></point>
      <point x="249" y="0" type="line"></point>
      <point x="148" y="222.611"></point>
      <point x="58" y="447.416"></point>
      <point x="-20" y="693" type="curve"></point>
      <point x="83" y="693" type="line"></point>
      <point x="151" y="494.013"></point>
      <point x="218" y="296.079"></point>
    </contour>
  </outline>
</glyph>
<glyph name="W" format="1">
  <advance width="806"></advance>
  <unicode hex="0057"></unicode>
  <outline>
    <contour>
      <point x="839" y="693" type="line"></point>
      <point x="793" y="438.486"></point>
      <point x="743" y="217.548"></point>
      <point x="670" y="0" type="curve"></point>
      <point x="573" y="0" type="line"></point>
      <point x="510" y="154.12"></point>
      <point x="456" y="299.376"></point>
      <point x="403" y="470" type="curve"></point>
      <point x="349" y="299.711"></point>
      <point x="293" y="154.58"></point>
      <point x="232" y="0" type="curve"></point>
      <point x="135" y="0" type="line"></point>
      <point x="59" y="216.541"></point>
      <point x="10" y="437.827"></point>
      <point x="-31" y="693" type="curve"></point>
      <point x="68" y="693" type="line"></point>
      <point x="95" y="541.355"></point>
      <point x="125" y="387.723"></point>
      <point x="160" y="245" type="curve" smooth="yes"></point>
      <point x="170" y="200.333"></point>
      <point x="181" y="159"></point>
      <point x="193" y="121" type="curve"></point>
      <point x="249" y="270.25"></point>
      <point x="313" y="445.209"></point>
      <point x="362" y="611" type="curve"></point>
      <point x="446" y="611" type="line"></point>
      <point x="494" y="445.059"></point>
      <point x="560" y="270.346"></point>
      <point x="617" y="121" type="curve"></point>
      <point x="667" y="298.201"></point>
      <point x="705" y="498.369"></point>
      <point x="740" y="693" type="curve"></point>
    </contour>
  </outline>
</glyph>
<glyph name="X" format="1">
  <advance width="589"></advance>
  <unicode hex="0058"></unicode>
  <outline>
    <contour>
      <point x="0" y="0" type="line"></point>
      <point x="62" y="127.52"></point>
      <point x="145" y="247.34"></point>
      <point x="228" y="366" type="curve"></point>
      <point x="6" y="693" type="line"></point>
      <point x="118" y="693" type="line"></point>
      <point x="289" y="435" type="line"></point>
      <point x="458" y="693" type="line"></point>
      <point x="569" y="693" type="line"></point>
      <point x="351" y="370" type="line"></point>
      <point x="435" y="250.012"></point>
      <point x="518" y="128.782"></point>
      <point x="585" y="0" type="curve"></point>
      <point x="476" y="0" type="line"></point>
      <point x="424" y="102.967"></point>
      <point x="355" y="204.9"></point>
      <point x="290" y="296" type="curve"></point>
      <point x="238" y="224.379"></point>
      <point x="185" y="143.553"></point>
      <point x="140" y="66.5" type="curve" smooth="yes"></point>
      <point x="126" y="42.1667"></point>
      <point x="114" y="20"></point>
      <point x="104" y="0" type="curve"></point>
    </contour>
  </outline>
</glyph>
<glyph name="Y" format="1">
  <advance width="526"></advance>
  <unicode hex="0059"></unicode>
  <outline>
    <contour>
      <point x="559" y="693" type="line"></point>
      <point x="483" y="553.006"></point>
      <point x="401" y="414.845"></point>
      <point x="315" y="280" type="curve"></point>
      <point x="315" y="0" type="line"></point>
      <point x="218" y="0" type="line"></point>
      <point x="218" y="278" type="line"></point>
      <point x="130" y="413.704"></point>
      <point x="49" y="552.177"></point>
      <point x="-23" y="693" type="curve"></point>
      <point x="87" y="693" type="line"></point>
      <point x="138" y="581.817"></point>
      <point x="204" y="464.457"></point>
      <point x="269" y="364" type="curve"></point>
      <point x="332" y="465.117"></point>
      <point x="398" y="582.521"></point>
      <point x="451" y="693" type="curve"></point>
    </contour>
  </outline>
</glyph>
<glyph name="Z" format="1">
  <advance width="564"></advance>
  <unicode hex="005A"></unicode>
  <outline>
    <contour>
      <point x="510" y="616" type="line"></point>
      <point x="420" y="514.285"></point>
      <point x="330" y="394.583"></point>
      <point x="251" y="278.5" type="curve" smooth="yes"></point>
      <point x="208" y="216.265"></point>
      <point x="165" y="147.649"></point>
      <point x="130" y="83" type="curve"></point>
      <point x="520" y="83" type="line"></point>
      <point x="520" y="0" type="line"></point>
      <point x="17" y="0" type="line"></point>
      <point x="17" y="65" type="line"></point>
      <point x="87" y="198.776"></point>
      <point x="177" y="330.984"></point>
      <point x="264" y="450" type="curve" smooth="yes"></point>
      <point x="305" y="505.332"></point>
      <point x="349" y="562.177"></point>
      <point x="391" y="610" type="curve"></point>
      <point x="35" y="610" type="line"></point>
      <point x="35" y="693" type="line"></point>
      <point x="510" y="693" type="line"></point>
    </contour>
  </outline>
</glyph>
<glyph name="bracketleft" format="1">
  <advance width="322"></advance>
  <unicode hex="005B"></unicode>
  <outline>
    <contour>
      <point x="68" y="783" type="line"></point>
      <point x="293" y="783" type="line"></point>
      <point x="293" y="710" type="line"></point>
      <point x="155" y="710" type="line"></point>
      <point x="155" y="-112" type="line"></point>
      <point x="293" y="-112" type="line"></point>
      <point x="293" y="-185" type="line"></point>
      <point x="68" y="-185" type="line"></point>
    </contour>
  </outline>
</glyph>
<glyph name="backslash" format="1">
  <advance width="417"></advance>
  <unicode hex="005C"></unicode>
  <outline>
    <contour>
      <point x="-17" y="783" type="line"></point>
      <point x="73" y="783" type="line"></point>
      <point x="412" y="-185" type="line"></point>
      <point x="317" y="-185" type="line"></point>
    </contour>
  </outline>
</glyph>
<glyph name="bracketright" format="1">
  <advance width="446"></advance>
  <unicode hex="005D"></unicode>
  <outline>
    <contour>
      <point x="349" y="-185" type="line"></point>
      <point x="124" y="-185" type="line"></point>
      <point x="124" y="-112" type="line"></point>
      <point x="262" y="-112" type="line"></point>
      <point x="262" y="710" type="line"></point>
      <point x="124" y="710" type="line"></point>
      <point x="124" y="783" type="line"></point>
      <point x="349" y="783" type="line"></point>
    </contour>
  </outline>
</glyph>
<glyph name="asciicircum" format="1">
  <advance width="524"></advance>
  <unicode hex="005E"></unicode>
  <outline>
    <contour>
      <point x="305" y="693" type="line"></point>
      <point x="499" y="353" type="line"></point>
      <point x="425" y="315" type="line"></point>
      <point x="264" y="597" type="line"></point>
      <point x="103" y="315" type="line"></point>
      <point x="29" y="353" type="line"></point>
      <point x="223" y="693" type="line"></point>
    </contour>
  </outline>
</glyph>
<glyph name="underscore" format="1">
  <advance width="564"></advance>
  <unicode hex="005F"></unicode>
  <outline>
    <contour>
      <point x="115" y="-106" type="line"></point>
      <point x="615" y="-106" type="line"></point>
      <point x="615" y="-185" type="line"></point>
      <point x="115" y="-185" type="line"></point>
    </contour>
  </outline>
</glyph>
<glyph name="grave" format="1">
  <advance width="389"></advance>
  <unicode hex="0060"></unicode>
  <outline>
    <contour>
      <point x="189" y="776" type="line"></point>
      <point x="317" y="622" type="line"></point>
      <point x="270" y="580" type="line"></point>
      <point x="129" y="717" type="line"></point>
    </contour>
  </outline>
</glyph>
<glyph name="a" format="1">
  <advance width="524"></advance>
  <unicode hex="0061"></unicode>
  <outline>
    <contour>
      <point x="135" y="156" type="curve" smooth="yes"></point>
      <point x="135" y="86.9126"></point>
      <point x="183" y="67"></point>
      <point x="254" y="67" type="curve" smooth="yes"></point>
      <point x="291" y="67"></point>
      <point x="327" y="67.4165"></point>
      <point x="355" y="74" type="curve"></point>
      <point x="355" y="229" type="line"></point>
      <point x="335" y="238.711"></point>
      <point x="301" y="241"></point>
      <point x="268" y="241" type="curve" smooth="yes"></point>
      <point x="214" y="241"></point>
      <point x="171" y="229.698"></point>
      <point x="148" y="199.5" type="curve" smooth="yes"></point>
      <point x="139" y="188.5"></point>
      <point x="135" y="174"></point>
    </contour>
    <contour>
      <point x="95" y="510" type="line"></point>
      <point x="126" y="524.221"></point>
      <point x="194" y="533"></point>
      <point x="246" y="533" type="curve" smooth="yes"></point>
      <point x="380" y="533"></point>
      <point x="446" y="467.244"></point>
      <point x="446" y="334" type="curve" smooth="yes"></point>
      <point x="446" y="9" type="line"></point>
      <point x="385" y="-1.00373"></point>
      <point x="314" y="-11"></point>
      <point x="243" y="-11" type="curve" smooth="yes"></point>
      <point x="123" y="-11"></point>
      <point x="41" y="34.8067"></point>
      <point x="41" y="155" type="curve" smooth="yes"></point>
      <point x="41" y="273.785"></point>
      <point x="141" y="316"></point>
      <point x="260" y="316" type="curve" smooth="yes"></point>
      <point x="293" y="316"></point>
      <point x="327" y="309.753"></point>
      <point x="355" y="303" type="curve"></point>
      <point x="355" y="329" type="line" smooth="yes"></point>
      <point x="355" y="408.205"></point>
      <point x="319" y="453"></point>
      <point x="238" y="453" type="curve" smooth="yes"></point>
      <point x="188" y="453"></point>
      <point x="137" y="445.813"></point>
      <point x="106" y="433" type="curve"></point>
    </contour>
  </outline>
</glyph>
<glyph name="b" format="1">
  <advance width="531"></advance>
  <unicode hex="0062"></unicode>
  <outline>
    <contour>
      <point x="247" y="-12" type="curve" smooth="yes"></point>
      <point x="172" y="-12"></point>
      <point x="102" y="0.113518"></point>
      <point x="50" y="15" type="curve"></point>
      <point x="50" y="760" type="line"></point>
      <point x="143" y="776" type="line"></point>
      <point x="143" y="497" type="line"></point>
      <point x="171" y="515.297"></point>
      <point x="222" y="532"></point>
      <point x="274" y="532" type="curve" smooth="yes"></point>
      <point x="394" y="532"></point>
      <point x="463" y="462.95"></point>
      <point x="492" y="370" type="curve" smooth="yes"></point>
      <point x="502" y="336.667"></point>
      <point x="508" y="300"></point>
      <point x="508" y="260" type="curve" smooth="yes"></point>
      <point x="508" y="129.561"></point>
      <point x="448" y="44.1934"></point>
      <point x="355" y="7" type="curve" smooth="yes"></point>
      <point x="323" y="-5.66667"></point>
      <point x="287" y="-12"></point>
    </contour>
    <contour>
      <point x="262" y="450" type="curve" smooth="yes"></point>
      <point x="215" y="450"></point>
      <point x="167" y="430.078"></point>
      <point x="143" y="410" type="curve"></point>
      <point x="143" y="81" type="line"></point>
      <point x="170" y="73.1472"></point>
      <point x="205" y="70"></point>
      <point x="246" y="70" type="curve" smooth="yes"></point>
      <point x="353" y="70"></point>
      <point x="411" y="147.708"></point>
      <point x="411" y="260" type="curve" smooth="yes"></point>
      <point x="411" y="368.925"></point>
      <point x="370" y="450"></point>
    </contour>
  </outline>
</glyph>
<glyph name="c" format="1">
  <advance width="475"></advance>
  <unicode hex="0063"></unicode>
  <outline>
    <contour>
      <point x="317" y="70" type="curve" smooth="yes"></point>
      <point x="359" y="70"></point>
      <point x="404" y="79.3272"></point>
      <point x="431" y="92" type="curve"></point>
      <point x="444" y="14" type="line"></point>
      <point x="420" y="-0.423262"></point>
      <point x="380" y="-5.52301"></point>
      <point x="346" y="-9.5" type="curve" smooth="yes"></point>
      <point x="332" y="-11.1667"></point>
      <point x="318" y="-12"></point>
      <point x="305" y="-12" type="curve" smooth="yes"></point>
      <point x="176" y="-12"></point>
      <point x="97" y="52.281"></point>
      <point x="66" y="149.5" type="curve" smooth="yes"></point>
      <point x="55" y="182.5"></point>
      <point x="50" y="219"></point>
      <point x="50" y="259" type="curve" smooth="yes"></point>
      <point x="50" y="385.335"></point>
      <point x="106" y="473.433"></point>
      <point x="195" y="512.5" type="curve" smooth="yes"></point>
      <point x="226" y="526.167"></point>
      <point x="261" y="533"></point>
      <point x="299" y="533" type="curve" smooth="yes"></point>
      <point x="350" y="533"></point>
      <point x="397" y="523.723"></point>
      <point x="436" y="508" type="curve"></point>
      <point x="415" y="429" type="line"></point>
      <point x="387" y="442.216"></point>
      <point x="349" y="451"></point>
      <point x="308" y="451" type="curve" smooth="yes"></point>
      <point x="196" y="451"></point>
      <point x="147" y="375.299"></point>
      <point x="147" y="259" type="curve" smooth="yes"></point>
      <point x="147" y="141.262"></point>
      <point x="198" y="70"></point>
    </contour>
  </outline>
</glyph>
<glyph name="d" format="1">
  <advance width="595"></advance>
  <unicode hex="0064"></unicode>
  <outline>
    <contour>
      <point x="315" y="70" type="curve" smooth="yes"></point>
      <point x="355" y="70"></point>
      <point x="390" y="73.1075"></point>
      <point x="418" y="81" type="curve"></point>
      <point x="418" y="410" type="line"></point>
      <point x="393" y="430.058"></point>
      <point x="345" y="450"></point>
      <point x="299" y="450" type="curve" smooth="yes"></point>
      <point x="190" y="450"></point>
      <point x="150" y="368.925"></point>
      <point x="150" y="260" type="curve" smooth="yes"></point>
      <point x="150" y="147.669"></point>
      <point x="207" y="70"></point>
    </contour>
    <contour>
      <point x="287" y="532" type="curve" smooth="yes"></point>
      <point x="338" y="532"></point>
      <point x="389" y="515.349"></point>
      <point x="418" y="497" type="curve"></point>
      <point x="418" y="760" type="line"></point>
      <point x="511" y="776" type="line"></point>
      <point x="511" y="15" type="line"></point>
      <point x="458" y="0.157421"></point>
      <point x="388" y="-12"></point>
      <point x="314" y="-12" type="curve" smooth="yes"></point>
      <point x="186" y="-12"></point>
      <point x="106" y="51.806"></point>
      <point x="71" y="146.5" type="curve" smooth="yes"></point>
      <point x="59" y="180.167"></point>
      <point x="53" y="218"></point>
      <point x="53" y="260" type="curve" smooth="yes"></point>
      <point x="53" y="384.477"></point>
      <point x="101" y="472.59"></point>
      <point x="187" y="512" type="curve" smooth="yes"></point>
      <point x="216" y="525.333"></point>
      <point x="249" y="532"></point>
    </contour>
  </outline>
</glyph>
<glyph name="e" format="1">
  <advance width="551"></advance>
  <unicode hex="0065"></unicode>
  <outline>
    <contour>
      <point x="466" y="17" type="line"></point>
      <point x="433" y="-0.310075"></point>
      <point x="366" y="-12"></point>
      <point x="310" y="-12" type="curve" smooth="yes"></point>
      <point x="138" y="-12"></point>
      <point x="48" y="88.7238"></point>
      <point x="48" y="259" type="curve" smooth="yes"></point>
      <point x="48" y="389.254"></point>
      <point x="104" y="479.567"></point>
      <point x="197" y="516" type="curve" smooth="yes"></point>
      <point x="225" y="527.333"></point>
      <point x="255" y="533"></point>
      <point x="285" y="533" type="curve" smooth="yes"></point>
      <point x="438" y="533"></point>
      <point x="502" y="430.67"></point>
      <point x="502" y="268" type="curve" smooth="yes"></point>
      <point x="502" y="252.5" type="line" smooth="yes"></point>
      <point x="502" y="246.167"></point>
      <point x="501" y="240.333"></point>
      <point x="501" y="235" type="curve"></point>
      <point x="145" y="235" type="line"></point>
      <point x="152" y="127.041"></point>
      <point x="203" y="70"></point>
      <point x="320" y="70" type="curve" smooth="yes"></point>
      <point x="373" y="70"></point>
      <point x="420" y="79.8686"></point>
      <point x="453" y="95" type="curve"></point>
    </contour>
    <contour>
      <point x="405" y="310" type="line"></point>
      <point x="406" y="390.316"></point>
      <point x="362" y="454"></point>
      <point x="284" y="454" type="curve" smooth="yes"></point>
      <point x="197" y="454"></point>
      <point x="155" y="387.225"></point>
      <point x="147" y="310" type="curve"></point>
    </contour>
  </outline>
</glyph>
<glyph name="f" format="1">
  <advance width="380"></advance>
  <unicode hex="0066"></unicode>
  <outline>
    <contour>
      <point x="71" y="567" type="line" smooth="yes"></point>
      <point x="71" y="702.722"></point>
      <point x="136" y="776"></point>
      <point x="274" y="776" type="curve" smooth="yes"></point>
      <point x="316" y="776"></point>
      <point x="360" y="769.711"></point>
      <point x="386" y="759" type="curve"></point>
      <point x="369" y="679" type="line"></point>
      <point x="347" y="689.577"></point>
      <point x="316" y="696"></point>
      <point x="281" y="696" type="curve" smooth="yes"></point>
      <point x="196" y="696"></point>
      <point x="164" y="647.483"></point>
      <point x="164" y="565" type="curve" smooth="yes"></point>
      <point x="164" y="520" type="line"></point>
      <point x="364" y="520" type="line"></point>
      <point x="364" y="442" type="line"></point>
      <point x="164" y="442" type="line"></point>
      <point x="164" y="0" type="line"></point>
      <point x="71" y="0" type="line"></point>
    </contour>
  </outline>
</glyph>
<glyph name="g" format="1">
  <advance width="554"></advance>
  <unicode hex="0067"></unicode>
  <outline>
    <contour>
      <point x="243" y="-108" type="curve" smooth="yes"></point>
      <point x="348" y="-108"></point>
      <point x="399" y="-71.4267"></point>
      <point x="399" y="30" type="curve" smooth="yes"></point>
      <point x="399" y="52" type="line"></point>
      <point x="373" y="35.259"></point>
      <point x="319" y="19"></point>
      <point x="272" y="19" type="curve" smooth="yes"></point>
      <point x="160" y="19"></point>
      <point x="93" y="76.3284"></point>
      <point x="62" y="159" type="curve" smooth="yes"></point>
      <point x="50" y="190.333"></point>
      <point x="44" y="227.667"></point>
      <point x="44" y="271" type="curve" smooth="yes"></point>
      <point x="44" y="394.212"></point>
      <point x="101" y="474.867"></point>
      <point x="190" y="511.5" type="curve" smooth="yes"></point>
      <point x="221" y="524.5"></point>
      <point x="256" y="531"></point>
      <point x="296" y="531" type="curve" smooth="yes"></point>
      <point x="371" y="531"></point>
      <point x="436" y="517.28"></point>
      <point x="491" y="504" type="curve"></point>
      <point x="491" y="40" type="line" smooth="yes"></point>
      <point x="491" y="-123.209"></point>
      <point x="405" y="-188"></point>
      <point x="241" y="-188" type="curve" smooth="yes"></point>
      <point x="179" y="-188"></point>
      <point x="117" y="-176.32"></point>
      <point x="73" y="-161" type="curve"></point>
      <point x="90" y="-80" type="line"></point>
      <point x="128" y="-95.1384"></point>
      <point x="187" y="-108"></point>
    </contour>
    <contour>
      <point x="281" y="99" type="curve" smooth="yes"></point>
      <point x="327" y="99"></point>
      <point x="372" y="114.423"></point>
      <point x="398" y="134" type="curve"></point>
      <point x="398" y="438" type="line"></point>
      <point x="369" y="446.139"></point>
      <point x="340" y="449"></point>
      <point x="297" y="449" type="curve" smooth="yes"></point>
      <point x="194" y="449"></point>
      <point x="141" y="374.198"></point>
      <point x="141" y="270" type="curve" smooth="yes"></point>
      <point x="141" y="188.862"></point>
      <point x="171" y="131.379"></point>
      <point x="228" y="109" type="curve" smooth="yes"></point>
      <point x="245" y="102.333"></point>
      <point x="263" y="99"></point>
    </contour>
  </outline>
</glyph>
<glyph name="h" format="1">
  <advance width="546"></advance>
  <unicode hex="0068"></unicode>
  <outline>
    <contour>
      <point x="274" y="531" type="curve" smooth="yes"></point>
      <point x="428" y="531"></point>
      <point x="487" y="445.118"></point>
      <point x="487" y="292" type="curve" smooth="yes"></point>
      <point x="487" y="0" type="line"></point>
      <point x="394" y="0" type="line"></point>
      <point x="394" y="272" type="line" smooth="yes"></point>
      <point x="394" y="353.334"></point>
      <point x="383" y="417.753"></point>
      <point x="326" y="439.5" type="curve" smooth="yes"></point>
      <point x="309" y="445.833"></point>
      <point x="288" y="449"></point>
      <point x="264" y="449" type="curve" smooth="yes"></point>
      <point x="227" y="449"></point>
      <point x="186" y="442.757"></point>
      <point x="160" y="432" type="curve"></point>
      <point x="160" y="0" type="line"></point>
      <point x="67" y="0" type="line"></point>
      <point x="67" y="760" type="line"></point>
      <point x="160" y="776" type="line"></point>
      <point x="160" y="510" type="line"></point>
      <point x="191" y="522.173"></point>
      <point x="232" y="531"></point>
    </contour>
  </outline>
</glyph>
<glyph name="i" format="1">
  <advance width="320"></advance>
  <unicode hex="0069"></unicode>
  <outline>
    <contour>
      <point x="209" y="0" type="line"></point>
      <point x="116" y="0" type="line"></point>
      <point x="116" y="520" type="line"></point>
      <point x="209" y="520" type="line"></point>
    </contour>
    <contour>
      <point x="222" y="675" type="curve" smooth="yes"></point>
      <point x="222" y="639.368"></point>
      <point x="196" y="614"></point>
      <point x="162" y="614" type="curve" smooth="yes"></point>
      <point x="127" y="614"></point>
      <point x="102" y="639.375"></point>
      <point x="102" y="675" type="curve" smooth="yes"></point>
      <point x="102" y="710.632"></point>
      <point x="127" y="736"></point>
      <point x="162" y="736" type="curve" smooth="yes"></point>
      <point x="196" y="736"></point>
      <point x="222" y="710.625"></point>
    </contour>
  </outline>
</glyph>
<glyph name="j" format="1">
  <advance width="282"></advance>
  <unicode hex="006A"></unicode>
  <outline>
    <contour>
      <point x="216" y="10" type="line" smooth="yes"></point>
      <point x="216" y="-116.483"></point>
      <point x="160" y="-187"></point>
      <point x="38" y="-187" type="curve" smooth="yes"></point>
      <point x="20" y="-187"></point>
      <point x="-9" y="-181.314"></point>
      <point x="-23" y="-176" type="curve"></point>
      <point x="-11" y="-100" type="line"></point>
      <point x="0" y="-103.607"></point>
      <point x="19" y="-107"></point>
      <point x="34" y="-107" type="curve" smooth="yes"></point>
      <point x="102" y="-107"></point>
      <point x="123" y="-61.726"></point>
      <point x="123" y="9" type="curve" smooth="yes"></point>
      <point x="123" y="520" type="line"></point>
      <point x="216" y="520" type="line"></point>
    </contour>
    <contour>
      <point x="229" y="675" type="curve" smooth="yes"></point>
      <point x="229" y="639.368"></point>
      <point x="203" y="614"></point>
      <point x="169" y="614" type="curve" smooth="yes"></point>
      <point x="134" y="614"></point>
      <point x="109" y="639.375"></point>
      <point x="109" y="675" type="curve" smooth="yes"></point>
      <point x="109" y="710.632"></point>
      <point x="134" y="736"></point>
      <point x="169" y="736" type="curve" smooth="yes"></point>
      <point x="203" y="736"></point>
      <point x="229" y="710.625"></point>
    </contour>
  </outline>
</glyph>
<glyph name="k" format="1">
  <advance width="474"></advance>
  <unicode hex="006B"></unicode>
  <outline>
    <contour>
      <point x="241" y="286" type="curve"></point>
      <point x="312" y="231.149"></point>
      <point x="378" y="150.458"></point>
      <point x="432" y="75.5" type="curve" smooth="yes"></point>
      <point x="451" y="48.5"></point>
      <point x="467" y="23.3333"></point>
      <point x="481" y="0" type="curve"></point>
      <point x="372" y="0" type="line"></point>
      <point x="327" y="74.0205"></point>
      <point x="267" y="146.629"></point>
      <point x="205" y="203" type="curve" smooth="yes"></point>
      <point x="184" y="221.667"></point>
      <point x="164" y="237.333"></point>
      <point x="146" y="250" type="curve"></point>
      <point x="146" y="0" type="line"></point>
      <point x="53" y="0" type="line"></point>
      <point x="53" y="760" type="line"></point>
      <point x="146" y="776" type="line"></point>
      <point x="146" y="302" type="line"></point>
      <point x="199" y="355" type="line" smooth="yes"></point>
      <point x="250" y="406.816"></point>
      <point x="305" y="465.796"></point>
      <point x="352" y="520" type="curve"></point>
      <point x="461" y="520" type="line"></point>
      <point x="390" y="443.141"></point>
      <point x="313" y="361.325"></point>
    </contour>
  </outline>
</glyph>
<glyph name="l" format="1">
  <advance width="322"></advance>
  <unicode hex="006C"></unicode>
  <outline>
    <contour>
      <point x="245" y="-10" type="line"></point>
      <point x="137" y="-7.49316"></point>
      <point x="87" y="30.4613"></point>
      <point x="87" y="136" type="curve" smooth="yes"></point>
      <point x="87" y="760" type="line"></point>
      <point x="180" y="776" type="line"></point>
      <point x="180" y="151" type="line" smooth="yes"></point>
      <point x="180" y="109.052"></point>
      <point x="189" y="85.0323"></point>
      <point x="221" y="75.5" type="curve" smooth="yes"></point>
      <point x="231" y="72.5"></point>
      <point x="243" y="70"></point>
      <point x="258" y="68" type="curve"></point>
    </contour>
  </outline>
</glyph>
<glyph name="m" format="1">
  <advance width="808"></advance>
  <unicode hex="006D"></unicode>
  <outline>
    <contour>
      <point x="247" y="449" type="curve" smooth="yes"></point>
      <point x="211" y="449"></point>
      <point x="172" y="446.097"></point>
      <point x="144" y="439" type="curve"></point>
      <point x="144" y="0" type="line"></point>
      <point x="51" y="0" type="line"></point>
      <point x="51" y="505" type="line"></point>
      <point x="106" y="518.791"></point>
      <point x="179" y="531"></point>
      <point x="257" y="531" type="curve" smooth="yes"></point>
      <point x="323" y="531"></point>
      <point x="366" y="513.083"></point>
      <point x="398" y="478" type="curve"></point>
      <point x="437" y="506.022"></point>
      <point x="495" y="531"></point>
      <point x="564" y="531" type="curve" smooth="yes"></point>
      <point x="675" y="531"></point>
      <point x="734" y="482.019"></point>
      <point x="750" y="388" type="curve" smooth="yes"></point>
      <point x="755" y="358.667"></point>
      <point x="758" y="326.667"></point>
      <point x="758" y="292" type="curve" smooth="yes"></point>
      <point x="758" y="0" type="line"></point>
      <point x="665" y="0" type="line"></point>
      <point x="665" y="272" type="line" smooth="yes"></point>
      <point x="665" y="373.44"></point>
      <point x="654" y="449"></point>
      <point x="554" y="449" type="curve" smooth="yes"></point>
      <point x="504" y="449"></point>
      <point x="457" y="434.511"></point>
      <point x="435" y="414" type="curve"></point>
      <point x="445" y="379.507"></point>
      <point x="451" y="337.15"></point>
      <point x="451" y="292" type="curve" smooth="yes"></point>
      <point x="451" y="0" type="line"></point>
      <point x="358" y="0" type="line"></point>
      <point x="358" y="272" type="line" smooth="yes"></point>
      <point x="358" y="372.17"></point>
      <point x="345" y="449"></point>
    </contour>
  </outline>
</glyph>
<glyph name="n" format="1">
  <advance width="572"></advance>
  <unicode hex="006E"></unicode>
  <outline>
    <contour>
      <point x="274" y="449" type="curve" smooth="yes"></point>
      <point x="237" y="449"></point>
      <point x="199" y="444.929"></point>
      <point x="170" y="439" type="curve"></point>
      <point x="170" y="0" type="line"></point>
      <point x="77" y="0" type="line"></point>
      <point x="77" y="505" type="line"></point>
      <point x="132" y="518.777"></point>
      <point x="206" y="531"></point>
      <point x="284" y="531" type="curve" smooth="yes"></point>
      <point x="438" y="531"></point>
      <point x="497" y="445.118"></point>
      <point x="497" y="292" type="curve" smooth="yes"></point>
      <point x="497" y="0" type="line"></point>
      <point x="404" y="0" type="line"></point>
      <point x="404" y="272" type="line" smooth="yes"></point>
      <point x="404" y="353.334"></point>
      <point x="393" y="417.753"></point>
      <point x="336" y="439.5" type="curve" smooth="yes"></point>
      <point x="319" y="445.833"></point>
      <point x="298" y="449"></point>
    </contour>
  </outline>
</glyph>
<glyph name="o" format="1">
  <advance width="595"></advance>
  <unicode hex="006F"></unicode>
  <outline>
    <contour>
      <point x="541" y="260" type="curve" smooth="yes"></point>
      <point x="541" y="133.183"></point>
      <point x="483" y="45.0086"></point>
      <point x="395" y="6.5" type="curve" smooth="yes"></point>
      <point x="365" y="-6.5"></point>
      <point x="332" y="-13"></point>
      <point x="297" y="-13" type="curve" smooth="yes"></point>
      <point x="177" y="-13"></point>
      <point x="103" y="57.8812"></point>
      <point x="71" y="148" type="curve" smooth="yes"></point>
      <point x="59" y="181.333"></point>
      <point x="53" y="218.667"></point>
      <point x="53" y="260" type="curve" smooth="yes"></point>
      <point x="53" y="386.346"></point>
      <point x="110" y="475.096"></point>
      <point x="199" y="513.5" type="curve" smooth="yes"></point>
      <point x="229" y="526.5"></point>
      <point x="261" y="533"></point>
      <point x="297" y="533" type="curve" smooth="yes"></point>
      <point x="417" y="533"></point>
      <point x="490" y="462.075"></point>
      <point x="523" y="371.5" type="curve" smooth="yes"></point>
      <point x="535" y="337.833"></point>
      <point x="541" y="300.667"></point>
    </contour>
    <contour>
      <point x="297" y="69" type="curve" smooth="yes"></point>
      <point x="396" y="69"></point>
      <point x="444" y="154.771"></point>
      <point x="444" y="260" type="curve" smooth="yes"></point>
      <point x="444" y="365.277"></point>
      <point x="396" y="451"></point>
      <point x="297" y="451" type="curve" smooth="yes"></point>
      <point x="197" y="451"></point>
      <point x="150" y="365.229"></point>
      <point x="150" y="260" type="curve" smooth="yes"></point>
      <point x="150" y="154.723"></point>
      <point x="197" y="69"></point>
    </contour>
  </outline>
</glyph>
<glyph name="p" format="1">
  <advance width="552"></advance>
  <unicode hex="0070"></unicode>
  <outline>
    <contour>
      <point x="266" y="70" type="curve" smooth="yes"></point>
      <point x="374" y="70"></point>
      <point x="415" y="150.53"></point>
      <point x="415" y="259" type="curve" smooth="yes"></point>
      <point x="415" y="371.39"></point>
      <point x="357" y="448"></point>
      <point x="250" y="448" type="curve" smooth="yes"></point>
      <point x="205" y="448"></point>
      <point x="176" y="446.417"></point>
      <point x="147" y="438" type="curve"></point>
      <point x="147" y="110" type="line"></point>
      <point x="171" y="89.9416"></point>
      <point x="219" y="70"></point>
    </contour>
    <contour>
      <point x="54" y="504" type="line"></point>
      <point x="108" y="517.212"></point>
      <point x="176" y="531"></point>
      <point x="251" y="531" type="curve" smooth="yes"></point>
      <point x="378" y="531"></point>
      <point x="458" y="467.194"></point>
      <point x="493" y="372.5" type="curve" smooth="yes"></point>
      <point x="505" y="338.833"></point>
      <point x="512" y="301"></point>
      <point x="512" y="259" type="curve" smooth="yes"></point>
      <point x="512" y="135.326"></point>
      <point x="462" y="47.2054"></point>
      <point x="377" y="8" type="curve" smooth="yes"></point>
      <point x="348" y="-5.33333"></point>
      <point x="315" y="-12"></point>
      <point x="278" y="-12" type="curve" smooth="yes"></point>
      <point x="226" y="-12"></point>
      <point x="175" y="4.65139"></point>
      <point x="147" y="23" type="curve"></point>
      <point x="147" y="-185" type="line"></point>
      <point x="54" y="-185" type="line"></point>
    </contour>
  </outline>
</glyph>
<glyph name="q" format="1">
  <advance width="570"></advance>
  <unicode hex="0071"></unicode>
  <outline>
    <contour>
      <point x="309" y="448" type="curve" smooth="yes"></point>
      <point x="201" y="448"></point>
      <point x="144" y="371.351"></point>
      <point x="144" y="259" type="curve" smooth="yes"></point>
      <point x="144" y="150.529"></point>
      <point x="184" y="70"></point>
      <point x="293" y="70" type="curve" smooth="yes"></point>
      <point x="339" y="70"></point>
      <point x="387" y="89.9223"></point>
      <point x="412" y="110" type="curve"></point>
      <point x="412" y="438" type="line"></point>
      <point x="382" y="446.379"></point>
      <point x="353" y="448"></point>
    </contour>
    <contour>
      <point x="412" y="23" type="line"></point>
      <point x="383" y="4.70256"></point>
      <point x="332" y="-12"></point>
      <point x="281" y="-12" type="curve" smooth="yes"></point>
      <point x="160" y="-12"></point>
      <point x="91" y="57.0502"></point>
      <point x="62" y="150" type="curve" smooth="yes"></point>
      <point x="52" y="183.333"></point>
      <point x="47" y="219.667"></point>
      <point x="47" y="259" type="curve" smooth="yes"></point>
      <point x="47" y="389.439"></point>
      <point x="106" y="474.807"></point>
      <point x="200" y="512" type="curve" smooth="yes"></point>
      <point x="232" y="524.667"></point>
      <point x="268" y="531"></point>
      <point x="308" y="531" type="curve" smooth="yes"></point>
      <point x="383" y="531"></point>
      <point x="450" y="517.251"></point>
      <point x="505" y="504" type="curve"></point>
      <point x="505" y="-185" type="line"></point>
      <point x="412" y="-185" type="line"></point>
    </contour>
  </outline>
</glyph>
<glyph name="r" format="1">
  <advance width="362"></advance>
  <unicode hex="0072"></unicode>
  <outline>
    <contour>
      <point x="66" y="498" type="line"></point>
      <point x="116" y="516.255"></point>
      <point x="184" y="531"></point>
      <point x="258" y="531" type="curve" smooth="yes"></point>
      <point x="287" y="531"></point>
      <point x="318" y="525.462"></point>
      <point x="343" y="520.5" type="curve" smooth="yes"></point>
      <point x="351" y="518.833"></point>
      <point x="358" y="517.333"></point>
      <point x="362" y="516" type="curve"></point>
      <point x="346" y="435" type="line"></point>
      <point x="320" y="444.161"></point>
      <point x="285" y="450"></point>
      <point x="244" y="450" type="curve" smooth="yes"></point>
      <point x="218" y="450"></point>
      <point x="176" y="441.394"></point>
      <point x="159" y="437" type="curve"></point>
      <point x="159" y="0" type="line"></point>
      <point x="66" y="0" type="line"></point>
    </contour>
  </outline>
</glyph>
<glyph name="s" format="1">
  <advance width="417"></advance>
  <unicode hex="0073"></unicode>
  <outline>
    <contour>
      <point x="383" y="134" type="curve" smooth="yes"></point>
      <point x="383" y="26.399"></point>
      <point x="292" y="-12"></point>
      <point x="177" y="-12" type="curve" smooth="yes"></point>
      <point x="106" y="-12"></point>
      <point x="55" y="-0.0136449"></point>
      <point x="16" y="17" type="curve"></point>
      <point x="33" y="97" type="line"></point>
      <point x="43" y="93"></point>
      <point x="60" y="87"></point>
      <point x="84" y="79" type="curve" smooth="yes"></point>
      <point x="107" y="71"></point>
      <point x="138" y="67"></point>
      <point x="177" y="67" type="curve" smooth="yes"></point>
      <point x="237" y="67"></point>
      <point x="289" y="77.0066"></point>
      <point x="289" y="130" type="curve" smooth="yes"></point>
      <point x="289" y="152.667"></point>
      <point x="280" y="170.667"></point>
      <point x="262" y="184" type="curve" smooth="yes"></point>
      <point x="244" y="197.333"></point>
      <point x="214" y="212.333"></point>
      <point x="173" y="229" type="curve" smooth="yes"></point>
      <point x="101" y="257.536"></point>
      <point x="24" y="284.164"></point>
      <point x="24" y="383" type="curve" smooth="yes"></point>
      <point x="24" y="483.602"></point>
      <point x="108" y="533"></point>
      <point x="214" y="533" type="curve" smooth="yes"></point>
      <point x="265" y="533"></point>
      <point x="317" y="524.153"></point>
      <point x="355" y="510" type="curve"></point>
      <point x="338" y="430" type="line"></point>
      <point x="310" y="444.849"></point>
      <point x="262" y="455"></point>
      <point x="214" y="455" type="curve" smooth="yes"></point>
      <point x="166" y="455"></point>
      <point x="117" y="437.493"></point>
      <point x="117" y="391" type="curve" smooth="yes"></point>
      <point x="117" y="349.121"></point>
      <point x="146" y="331.745"></point>
      <point x="177" y="318" type="curve" smooth="yes"></point>
      <point x="267" y="277.129"></point>
      <point x="383" y="263.682"></point>
    </contour>
  </outline>
</glyph>
<glyph name="t" format="1">
  <advance width="427"></advance>
  <unicode hex="0074"></unicode>
  <outline>
    <contour>
      <point x="381" y="17" type="line"></point>
      <point x="353" y="3.08254"></point>
      <point x="299" y="-11"></point>
      <point x="252" y="-11" type="curve" smooth="yes"></point>
      <point x="151" y="-11"></point>
      <point x="97" y="27.5955"></point>
      <point x="79" y="109.5" type="curve" smooth="yes"></point>
      <point x="73" y="135.833"></point>
      <point x="71" y="166.333"></point>
      <point x="71" y="201" type="curve" smooth="yes"></point>
      <point x="71" y="665" type="line"></point>
      <point x="164" y="681" type="line"></point>
      <point x="164" y="520" type="line"></point>
      <point x="361" y="520" type="line"></point>
      <point x="361" y="442" type="line"></point>
      <point x="164" y="442" type="line"></point>
      <point x="164" y="202" type="line" smooth="yes"></point>
      <point x="164" y="121.002"></point>
      <point x="181" y="71"></point>
      <point x="260" y="71" type="curve" smooth="yes"></point>
      <point x="288" y="71"></point>
      <point x="310" y="74.1667"></point>
      <point x="327" y="80.5" type="curve" smooth="yes"></point>
      <point x="344" y="86.8333"></point>
      <point x="356" y="91.3333"></point>
      <point x="363" y="94" type="curve"></point>
    </contour>
  </outline>
</glyph>
<glyph name="u" format="1">
  <advance width="572"></advance>
  <unicode hex="0075"></unicode>
  <outline>
    <contour>
      <point x="167" y="248" type="line" smooth="yes"></point>
      <point x="167" y="134.579"></point>
      <point x="192" y="71"></point>
      <point x="298" y="71" type="curve" smooth="yes"></point>
      <point x="327" y="71"></point>
      <point x="358" y="74.111"></point>
      <point x="384" y="77.5" type="curve" smooth="yes"></point>
      <point x="392" y="78.5"></point>
      <point x="397" y="79.6667"></point>
      <point x="401" y="81" type="curve"></point>
      <point x="401" y="520" type="line"></point>
      <point x="494" y="520" type="line"></point>
      <point x="494" y="15" type="line"></point>
      <point x="438" y="1.20918"></point>
      <point x="365" y="-11"></point>
      <point x="288" y="-11" type="curve" smooth="yes"></point>
      <point x="136" y="-11"></point>
      <point x="74" y="77.5913"></point>
      <point x="74" y="228" type="curve" smooth="yes"></point>
      <point x="74" y="520" type="line"></point>
      <point x="167" y="520" type="line"></point>
    </contour>
  </outline>
</glyph>
<glyph name="v" format="1">
  <advance width="524"></advance>
  <unicode hex="0076"></unicode>
  <outline>
    <contour>
      <point x="261" y="109" type="curve"></point>
      <point x="313" y="233.2"></point>
      <point x="363" y="378.483"></point>
      <point x="398" y="520" type="curve"></point>
      <point x="494" y="520" type="line"></point>
      <point x="445" y="339.484"></point>
      <point x="370" y="150.562"></point>
      <point x="301" y="0" type="curve"></point>
      <point x="217" y="0" type="line"></point>
      <point x="147" y="150.401"></point>
      <point x="72" y="339.681"></point>
      <point x="24" y="520" type="curve"></point>
      <point x="124" y="520" type="line"></point>
      <point x="158" y="378.441"></point>
      <point x="208" y="233.112"></point>
    </contour>
  </outline>
</glyph>
<glyph name="w" format="1">
  <advance width="720"></advance>
  <unicode hex="0077"></unicode>
  <outline>
    <contour>
      <point x="725" y="520" type="line"></point>
      <point x="677" y="334.302"></point>
      <point x="620" y="152.897"></point>
      <point x="552" y="0" type="curve"></point>
      <point x="471" y="0" type="line"></point>
      <point x="430" y="104.827"></point>
      <point x="385" y="235.768"></point>
      <point x="354" y="357" type="curve"></point>
      <point x="322" y="235.599"></point>
      <point x="278" y="105.012"></point>
      <point x="238" y="0" type="curve"></point>
      <point x="157" y="0" type="line"></point>
      <point x="88" y="152.651"></point>
      <point x="31" y="334.548"></point>
      <point x="-14" y="520" type="curve"></point>
      <point x="84" y="520" type="line"></point>
      <point x="113" y="381.617"></point>
      <point x="154" y="233.773"></point>
      <point x="202" y="113" type="curve"></point>
      <point x="247" y="238.981"></point>
      <point x="288" y="381.671"></point>
      <point x="319" y="520" type="curve"></point>
      <point x="396" y="520" type="line"></point>
      <point x="423" y="380.113"></point>
      <point x="465" y="238.124"></point>
      <point x="511" y="113" type="curve"></point>
      <point x="558" y="234.213"></point>
      <point x="599" y="382.214"></point>
      <point x="629" y="520" type="curve"></point>
    </contour>
  </outline>
</glyph>
<glyph name="x" format="1">
  <advance width="524"></advance>
  <unicode hex="0078"></unicode>
  <outline>
    <contour>
      <point x="21" y="0" type="line"></point>
      <point x="68" y="92.3813"></point>
      <point x="140" y="191.699"></point>
      <point x="201" y="273" type="curve"></point>
      <point x="29" y="520" type="line"></point>
      <point x="134" y="520" type="line"></point>
      <point x="258" y="338" type="line"></point>
      <point x="383" y="520" type="line"></point>
      <point x="482" y="520" type="line"></point>
      <point x="314" y="279" type="line"></point>
      <point x="374" y="196.67"></point>
      <point x="450" y="93.421"></point>
      <point x="498" y="0" type="curve"></point>
      <point x="396" y="0" type="line"></point>
      <point x="358" y="75.4186"></point>
      <point x="305" y="149.001"></point>
      <point x="256" y="214" type="curve"></point>
      <point x="206" y="148.882"></point>
      <point x="155" y="74.1332"></point>
      <point x="117" y="0" type="curve"></point>
    </contour>
  </outline>
</glyph>
<glyph name="y" format="1">
  <advance width="524"></advance>
  <unicode hex="0079"></unicode>
  <outline>
    <contour>
      <point x="276" y="100" type="curve"></point>
      <point x="325" y="237.533"></point>
      <point x="360" y="369.86"></point>
      <point x="395" y="520" type="curve"></point>
      <point x="491" y="520" type="line"></point>
      <point x="444" y="330.437"></point>
      <point x="386" y="145.982"></point>
      <point x="316" y="-16" type="curve"></point>
      <point x="274" y="-109.295"></point>
      <point x="226" y="-188"></point>
      <point x="95" y="-188" type="curve" smooth="yes"></point>
      <point x="65" y="-188"></point>
      <point x="33" y="-181.992"></point>
      <point x="14" y="-172" type="curve"></point>
      <point x="31" y="-97" type="line"></point>
      <point x="45" y="-103.588"></point>
      <point x="72" y="-111"></point>
      <point x="94" y="-111" type="curve" smooth="yes"></point>
      <point x="130" y="-111"></point>
      <point x="159" y="-102.833"></point>
      <point x="180" y="-86.5" type="curve" smooth="yes"></point>
      <point x="200" y="-70.1667"></point>
      <point x="219" y="-43.6667"></point>
      <point x="236" y="-7" type="curve"></point>
      <point x="154" y="148.66"></point>
      <point x="76" y="333.602"></point>
      <point x="28" y="520" type="curve"></point>
      <point x="128" y="520" type="line"></point>
      <point x="164" y="372.589"></point>
      <point x="216" y="226.597"></point>
    </contour>
  </outline>
</glyph>
<glyph name="z" format="1">
  <advance width="491"></advance>
  <unicode hex="007A"></unicode>
  <outline>
    <contour>
      <point x="433" y="450" type="line"></point>
      <point x="363" y="373.471"></point>
      <point x="287" y="274.834"></point>
      <point x="224" y="185" type="curve" smooth="yes"></point>
      <point x="198" y="147.667"></point>
      <point x="175" y="112"></point>
      <point x="155" y="78" type="curve"></point>
      <point x="441" y="78" type="line"></point>
      <point x="441" y="0" type="line"></point>
      <point x="44" y="0" type="line"></point>
      <point x="44" y="62" type="line"></point>
      <point x="100" y="165.105"></point>
      <point x="180" y="273.07"></point>
      <point x="251" y="363.5" type="curve" smooth="yes"></point>
      <point x="275" y="394.5"></point>
      <point x="297" y="420.667"></point>
      <point x="315" y="442" type="curve"></point>
      <point x="58" y="442" type="line"></point>
      <point x="58" y="520" type="line"></point>
      <point x="433" y="520" type="line"></point>
    </contour>
  </outline>
</glyph>
<glyph name="braceleft" format="1">
  <advance width="360"></advance>
  <unicode hex="007B"></unicode>
  <outline>
    <contour>
      <point x="229" y="-13" type="line" smooth="yes"></point>
      <point x="229" y="-90.3021"></point>
      <point x="258" y="-112"></point>
      <point x="335" y="-112" type="curve"></point>
      <point x="335" y="-185" type="line"></point>
      <point x="331" y="-185" type="line" smooth="yes"></point>
      <point x="235" y="-185"></point>
      <point x="171" y="-159.471"></point>
      <point x="151" y="-87" type="curve" smooth="yes"></point>
      <point x="145" y="-65.6667"></point>
      <point x="142" y="-41.3333"></point>
      <point x="142" y="-14" type="curve" smooth="yes"></point>
      <point x="142" y="166" type="line" smooth="yes"></point>
      <point x="142" y="209.787"></point>
      <point x="121" y="239.491"></point>
      <point x="91" y="254.5" type="curve" smooth="yes"></point>
      <point x="79" y="260.167"></point>
      <point x="66" y="263"></point>
      <point x="50" y="263" type="curve"></point>
      <point x="50" y="335" type="line"></point>
      <point x="107" y="335"></point>
      <point x="142" y="375.18"></point>
      <point x="142" y="432" type="curve" smooth="yes"></point>
      <point x="142" y="612" type="line" smooth="yes"></point>
      <point x="142" y="736.173"></point>
      <point x="205" y="783"></point>
      <point x="331" y="783" type="curve" smooth="yes"></point>
      <point x="335" y="783" type="line"></point>
      <point x="335" y="710" type="line"></point>
      <point x="258" y="710"></point>
      <point x="229" y="688.303"></point>
      <point x="229" y="611" type="curve" smooth="yes"></point>
      <point x="229" y="457" type="line" smooth="yes"></point>
      <point x="229" y="375.501"></point>
      <point x="209" y="328.636"></point>
      <point x="162" y="299" type="curve"></point>
      <point x="209" y="269.382"></point>
      <point x="229" y="222.472"></point>
      <point x="229" y="141" type="curve" smooth="yes"></point>
    </contour>
  </outline>
</glyph>
<glyph name="bar" format="1">
  <advance width="276"></advance>
  <unicode hex="007C"></unicode>
  <outline>
    <contour>
      <point x="94" y="783" type="line"></point>
      <point x="181" y="783" type="line"></point>
      <point x="181" y="-185" type="line"></point>
      <point x="94" y="-185" type="line"></point>
    </contour>
  </outline>
</glyph>
<glyph name="braceright" format="1">
  <advance width="453"></advance>
  <unicode hex="007D"></unicode>
  <outline>
    <contour>
      <point x="215" y="611" type="line" smooth="yes"></point>
      <point x="215" y="688.302"></point>
      <point x="185" y="710"></point>
      <point x="109" y="710" type="curve"></point>
      <point x="109" y="783" type="line"></point>
      <point x="113" y="783" type="line" smooth="yes"></point>
      <point x="207" y="783"></point>
      <point x="272" y="756.687"></point>
      <point x="293" y="685" type="curve" smooth="yes"></point>
      <point x="299" y="663.667"></point>
      <point x="302" y="639.333"></point>
      <point x="302" y="612" type="curve" smooth="yes"></point>
      <point x="302" y="432" type="line" smooth="yes"></point>
      <point x="302" y="388.213"></point>
      <point x="322" y="358.509"></point>
      <point x="353" y="343.5" type="curve" smooth="yes"></point>
      <point x="364" y="337.833"></point>
      <point x="378" y="335"></point>
      <point x="394" y="335" type="curve"></point>
      <point x="394" y="263" type="line"></point>
      <point x="336" y="263"></point>
      <point x="302" y="222.82"></point>
      <point x="302" y="166" type="curve" smooth="yes"></point>
      <point x="302" y="-14" type="line" smooth="yes"></point>
      <point x="302" y="-138.745"></point>
      <point x="239" y="-185"></point>
      <point x="113" y="-185" type="curve" smooth="yes"></point>
      <point x="109" y="-185" type="line"></point>
      <point x="109" y="-112" type="line"></point>
      <point x="185" y="-112"></point>
      <point x="215" y="-90.3028"></point>
      <point x="215" y="-13" type="curve" smooth="yes"></point>
      <point x="215" y="141" type="line" smooth="yes"></point>
      <point x="215" y="222.499"></point>
      <point x="234" y="269.364"></point>
      <point x="282" y="299" type="curve"></point>
      <point x="234" y="328.618"></point>
      <point x="215" y="375.528"></point>
      <point x="215" y="457" type="curve" smooth="yes"></point>
    </contour>
  </outline>
</glyph>
<glyph name="asciitilde" format="1">
  <advance width="577"></advance>
  <unicode hex="007E"></unicode>
  <outline>
    <contour>
      <point x="51" y="242" type="line"></point>
      <point x="65" y="311.776"></point>
      <point x="102" y="382"></point>
      <point x="188" y="382" type="curve" smooth="yes"></point>
      <point x="230" y="382"></point>
      <point x="264" y="360.976"></point>
      <point x="292" y="344" type="curve" smooth="yes"></point>
      <point x="310" y="333.333"></point>
      <point x="327" y="322.833"></point>
      <point x="344" y="312.5" type="curve" smooth="yes"></point>
      <point x="360" y="302.167"></point>
      <point x="378" y="297"></point>
      <point x="397" y="297" type="curve" smooth="yes"></point>
      <point x="441" y="297"></point>
      <point x="454" y="341.134"></point>
      <point x="465" y="375" type="curve"></point>
      <point x="529" y="357" type="line"></point>
      <point x="518" y="302.613"></point>
      <point x="493" y="256.619"></point>
      <point x="451" y="231.5" type="curve" smooth="yes"></point>
      <point x="435" y="221.833"></point>
      <point x="415" y="217"></point>
      <point x="392" y="217" type="curve" smooth="yes"></point>
      <point x="349" y="217"></point>
      <point x="315" y="238.024"></point>
      <point x="288" y="255" type="curve" smooth="yes"></point>
      <point x="270" y="265.667"></point>
      <point x="252" y="276.167"></point>
      <point x="236" y="286.5" type="curve" smooth="yes"></point>
      <point x="219" y="296.833"></point>
      <point x="201" y="302"></point>
      <point x="183" y="302" type="curve" smooth="yes"></point>
      <point x="138" y="302"></point>
      <point x="125" y="257.866"></point>
      <point x="115" y="224" type="curve"></point>
    </contour>
  </outline>
</glyph>
<glyph name="exclamdown" format="1">
  <advance width="295"></advance>
  <unicode hex="00A1"></unicode>
  <outline>
    <contour>
      <point x="171" y="291" type="line"></point>
      <point x="183" y="195.679"></point>
      <point x="192" y="112.007"></point>
      <point x="192" y="2" type="curve" smooth="yes"></point>
      <point x="192" y="-185" type="line"></point>
      <point x="92" y="-185" type="line"></point>
      <point x="92" y="2" type="line" smooth="yes"></point>
      <point x="92" y="112.038"></point>
      <point x="100" y="195.634"></point>
      <point x="113" y="291" type="curve"></point>
    </contour>
    <contour>
      <point x="142" y="386" type="curve" smooth="yes"></point>
      <point x="102" y="386"></point>
      <point x="75" y="415.187"></point>
      <point x="75" y="453" type="curve" smooth="yes"></point>
      <point x="75" y="490.804"></point>
      <point x="102" y="520"></point>
      <point x="142" y="520" type="curve" smooth="yes"></point>
      <point x="181" y="520"></point>
      <point x="209" y="490.813"></point>
      <point x="209" y="453" type="curve" smooth="yes"></point>
      <point x="209" y="415.196"></point>
      <point x="181" y="386"></point>
    </contour>
  </outline>
</glyph>
<glyph name="cent" format="1">
  <advance width="394"></advance>
  <unicode hex="00A2"></unicode>
  <outline>
    <contour>
      <point x="394" y="55" type="line"></point>
      <point x="370" y="41.6884"></point>
      <point x="313" y="32.1084"></point>
      <point x="276" y="30" type="curve"></point>
      <point x="276" y="-109" type="line"></point>
      <point x="193" y="-109" type="line"></point>
      <point x="193" y="35" type="line"></point>
      <point x="97" y="52.8512"></point>
      <point x="37" y="111.662"></point>
      <point x="12" y="199" type="curve" smooth="yes"></point>
      <point x="4" y="227.667"></point>
      <point x="0" y="258.333"></point>
      <point x="0" y="291" type="curve" smooth="yes"></point>
      <point x="0" y="397.477"></point>
      <point x="45" y="474.737"></point>
      <point x="112" y="517" type="curve" smooth="yes"></point>
      <point x="136" y="532.333"></point>
      <point x="163" y="543"></point>
      <point x="193" y="549" type="curve"></point>
      <point x="193" y="693" type="line"></point>
      <point x="276" y="693" type="line"></point>
      <point x="276" y="554" type="line"></point>
      <point x="314" y="552"></point>
      <point x="351" y="544.333"></point>
      <point x="386" y="531" type="curve"></point>
      <point x="365" y="454" type="line"></point>
      <point x="336" y="466.046"></point>
      <point x="298" y="475"></point>
      <point x="258" y="475" type="curve" smooth="yes"></point>
      <point x="148" y="475"></point>
      <point x="97" y="404.32"></point>
      <point x="97" y="291" type="curve" smooth="yes"></point>
      <point x="97" y="176.029"></point>
      <point x="151" y="110"></point>
      <point x="267" y="110" type="curve" smooth="yes"></point>
      <point x="309" y="110"></point>
      <point x="353" y="119.658"></point>
      <point x="381" y="131" type="curve"></point>
    </contour>
  </outline>
</glyph>
<glyph name="sterling" format="1">
  <advance width="474"></advance>
  <unicode hex="00A3"></unicode>
  <outline>
    <contour>
      <point x="299" y="624" type="curve" smooth="yes"></point>
      <point x="204" y="624"></point>
      <point x="180" y="555.12"></point>
      <point x="180" y="458" type="curve" smooth="yes"></point>
      <point x="180" y="373" type="line"></point>
      <point x="369" y="373" type="line"></point>
      <point x="369" y="298" type="line"></point>
      <point x="180" y="298" type="line"></point>
      <point x="180" y="290" type="line" smooth="yes"></point>
      <point x="180" y="220.166"></point>
      <point x="173" y="141.922"></point>
      <point x="164" y="80" type="curve"></point>
      <point x="453" y="80" type="line"></point>
      <point x="453" y="0" type="line"></point>
      <point x="59" y="0" type="line"></point>
      <point x="72" y="89.749"></point>
      <point x="87" y="182.769"></point>
      <point x="87" y="283" type="curve" smooth="yes"></point>
      <point x="87" y="298" type="line"></point>
      <point x="-5" y="298" type="line"></point>
      <point x="-5" y="373" type="line"></point>
      <point x="87" y="373" type="line"></point>
      <point x="87" y="456" type="line" smooth="yes"></point>
      <point x="87" y="580.716"></point>
      <point x="120" y="669.041"></point>
      <point x="215" y="695" type="curve" smooth="yes"></point>
      <point x="241" y="702.333"></point>
      <point x="271" y="706"></point>
      <point x="303" y="706" type="curve" smooth="yes"></point>
      <point x="360" y="706"></point>
      <point x="394" y="694.753"></point>
      <point x="435" y="679" type="curve"></point>
      <point x="412" y="599" type="line"></point>
      <point x="376" y="615.667"></point>
      <point x="339" y="624"></point>
    </contour>
  </outline>
</glyph>
<glyph name="currency" format="1">
  <advance width="549"></advance>
  <unicode hex="00A4"></unicode>
  <outline>
    <contour>
      <point x="278" y="155" type="curve" smooth="yes"></point>
      <point x="235" y="155"></point>
      <point x="199" y="166.038"></point>
      <point x="172" y="183" type="curve"></point>
      <point x="98" y="109" type="line"></point>
      <point x="40" y="167" type="line"></point>
      <point x="113" y="240" type="line"></point>
      <point x="94" y="270"></point>
      <point x="85" y="305.667"></point>
      <point x="85" y="347" type="curve" smooth="yes"></point>
      <point x="85" y="387.667"></point>
      <point x="94" y="423"></point>
      <point x="113" y="453" type="curve"></point>
      <point x="40" y="527" type="line"></point>
      <point x="98" y="585" type="line"></point>
      <point x="172" y="510" type="line"></point>
      <point x="203" y="529.333"></point>
      <point x="238" y="539"></point>
      <point x="278" y="539" type="curve" smooth="yes"></point>
      <point x="317" y="539"></point>
      <point x="352" y="529.333"></point>
      <point x="383" y="510" type="curve"></point>
      <point x="458" y="585" type="line"></point>
      <point x="516" y="527" type="line"></point>
      <point x="442" y="453" type="line"></point>
      <point x="459" y="425.355"></point>
      <point x="471" y="390.764"></point>
      <point x="471" y="347" type="curve" smooth="yes"></point>
      <point x="471" y="302.288"></point>
      <point x="459" y="269.082"></point>
      <point x="442" y="241" type="curve"></point>
      <point x="516" y="167" type="line"></point>
      <point x="458" y="109" type="line"></point>
      <point x="383" y="183" type="line"></point>
      <point x="351" y="164.333"></point>
      <point x="316" y="155"></point>
    </contour>
    <contour>
      <point x="396" y="347" type="curve" smooth="yes"></point>
      <point x="396" y="404.892"></point>
      <point x="365" y="445.977"></point>
      <point x="323" y="462.5" type="curve" smooth="yes"></point>
      <point x="309" y="468.167"></point>
      <point x="294" y="471"></point>
      <point x="278" y="471" type="curve" smooth="yes"></point>
      <point x="221" y="471"></point>
      <point x="186" y="438.916"></point>
      <point x="169" y="398" type="curve" smooth="yes"></point>
      <point x="163" y="382.667"></point>
      <point x="160" y="365.667"></point>
      <point x="160" y="347" type="curve" smooth="yes"></point>
      <point x="160" y="288.627"></point>
      <point x="190" y="248.121"></point>
      <point x="232" y="231.5" type="curve" smooth="yes"></point>
      <point x="246" y="225.833"></point>
      <point x="262" y="223"></point>
      <point x="278" y="223" type="curve" smooth="yes"></point>
      <point x="334" y="223"></point>
      <point x="369" y="255.052"></point>
      <point x="386" y="295.5" type="curve" smooth="yes"></point>
      <point x="392" y="310.5"></point>
      <point x="396" y="327.667"></point>
    </contour>
  </outline>
</glyph>
<glyph name="yen" format="1">
  <advance width="549"></advance>
  <unicode hex="00A5"></unicode>
  <outline>
    <contour>
      <point x="275" y="387" type="curve"></point>
      <point x="333" y="482.211"></point>
      <point x="387" y="589.138"></point>
      <point x="437" y="693" type="curve"></point>
      <point x="538" y="693" type="line"></point>
      <point x="476" y="577.759"></point>
      <point x="412" y="461.26"></point>
      <point x="343" y="350" type="curve"></point>
      <point x="480" y="350" type="line"></point>
      <point x="480" y="279" type="line"></point>
      <point x="318" y="279" type="line"></point>
      <point x="318" y="177" type="line"></point>
      <point x="480" y="177" type="line"></point>
      <point x="480" y="106" type="line"></point>
      <point x="318" y="106" type="line"></point>
      <point x="318" y="0" type="line"></point>
      <point x="227" y="0" type="line"></point>
      <point x="227" y="106" type="line"></point>
      <point x="65" y="106" type="line"></point>
      <point x="65" y="177" type="line"></point>
      <point x="227" y="177" type="line"></point>
      <point x="227" y="279" type="line"></point>
      <point x="65" y="279" type="line"></point>
      <point x="65" y="350" type="line"></point>
      <point x="201" y="350" type="line"></point>
      <point x="132" y="461.628"></point>
      <point x="67" y="578.017"></point>
      <point x="7" y="693" type="curve"></point>
      <point x="110" y="693" type="line"></point>
      <point x="158" y="588.556"></point>
      <point x="215" y="481.43"></point>
    </contour>
  </outline>
</glyph>
<glyph name="brokenbar" format="1">
  <advance width="276"></advance>
  <unicode hex="00A6"></unicode>
  <outline>
    <contour>
      <point x="94" y="198" type="line"></point>
      <point x="181" y="198" type="line"></point>
      <point x="181" y="-185" type="line"></point>
      <point x="94" y="-185" type="line"></point>
    </contour>
    <contour>
      <point x="94" y="783" type="line"></point>
      <point x="181" y="783" type="line"></point>
      <point x="181" y="400" type="line"></point>
      <point x="94" y="400" type="line"></point>
    </contour>
  </outline>
</glyph>
<glyph name="section" format="1">
  <advance width="512"></advance>
  <unicode hex="00A7"></unicode>
  <outline>
    <contour>
      <point x="437" y="43" type="curve" smooth="yes"></point>
      <point x="437" y="-67.153"></point>
      <point x="349" y="-109"></point>
      <point x="233" y="-109" type="curve" smooth="yes"></point>
      <point x="157" y="-109"></point>
      <point x="98" y="-97.6232"></point>
      <point x="53" y="-75" type="curve"></point>
      <point x="76" y="-1" type="line"></point>
      <point x="121" y="-20.8402"></point>
      <point x="164" y="-32"></point>
      <point x="234" y="-32" type="curve" smooth="yes"></point>
      <point x="296" y="-32"></point>
      <point x="347" y="-18.8792"></point>
      <point x="347" y="37" type="curve" smooth="yes"></point>
      <point x="347" y="60.3333"></point>
      <point x="338" y="78.5"></point>
      <point x="320" y="91.5" type="curve" smooth="yes"></point>
      <point x="302" y="104.5"></point>
      <point x="271" y="118.333"></point>
      <point x="229" y="133" type="curve" smooth="yes"></point>
      <point x="142" y="161.807"></point>
      <point x="51" y="194.934"></point>
      <point x="51" y="309" type="curve" smooth="yes"></point>
      <point x="51" y="380.111"></point>
      <point x="95" y="426.262"></point>
      <point x="140" y="453" type="curve"></point>
      <point x="110" y="476.743"></point>
      <point x="86" y="508.875"></point>
      <point x="86" y="559" type="curve" smooth="yes"></point>
      <point x="86" y="659.735"></point>
      <point x="164" y="709"></point>
      <point x="271" y="709" type="curve" smooth="yes"></point>
      <point x="329" y="709"></point>
      <point x="394" y="693.706"></point>
      <point x="436" y="681" type="curve"></point>
      <point x="415" y="604" type="line"></point>
      <point x="374" y="619.044"></point>
      <point x="331" y="633"></point>
      <point x="270" y="633" type="curve" smooth="yes"></point>
      <point x="222" y="633"></point>
      <point x="174" y="613.52"></point>
      <point x="174" y="567" type="curve" smooth="yes"></point>
      <point x="174" y="524.554"></point>
      <point x="201" y="507.888"></point>
      <point x="232" y="494" type="curve" smooth="yes"></point>
      <point x="328" y="450.43"></point>
      <point x="458" y="439.443"></point>
      <point x="458" y="300" type="curve" smooth="yes"></point>
      <point x="458" y="246.456"></point>
      <point x="430" y="206.987"></point>
      <point x="402" y="180.5" type="curve" smooth="yes"></point>
      <point x="392" y="170.833"></point>
      <point x="382" y="163"></point>
      <point x="372" y="157" type="curve"></point>
      <point x="405" y="132.439"></point>
      <point x="437" y="97.7044"></point>
    </contour>
    <contour>
      <point x="308" y="191" type="curve"></point>
      <point x="339" y="211.926"></point>
      <point x="373" y="243.041"></point>
      <point x="373" y="291" type="curve" smooth="yes"></point>
      <point x="373" y="348.645"></point>
      <point x="326" y="371.493"></point>
      <point x="284" y="388" type="curve" smooth="yes"></point>
      <point x="258" y="397.699"></point>
      <point x="227" y="406.799"></point>
      <point x="201" y="418" type="curve"></point>
      <point x="169" y="397.365"></point>
      <point x="136" y="365.023"></point>
      <point x="136" y="318" type="curve" smooth="yes"></point>
      <point x="136" y="279.886"></point>
      <point x="155" y="259.625"></point>
      <point x="179" y="243.5" type="curve" smooth="yes"></point>
      <point x="215" y="220.097"></point>
      <point x="263" y="208.674"></point>
    </contour>
  </outline>
</glyph>
<glyph name="dieresis" format="1">
  <advance width="459"></advance>
  <unicode hex="00A8"></unicode>
  <outline>
    <contour>
      <point x="240" y="675" type="curve" smooth="yes"></point>
      <point x="240" y="642.1"></point>
      <point x="213" y="616"></point>
      <point x="182" y="616" type="curve" smooth="yes"></point>
      <point x="150" y="616"></point>
      <point x="124" y="642.108"></point>
      <point x="124" y="675" type="curve" smooth="yes"></point>
      <point x="124" y="707.9"></point>
      <point x="150" y="734"></point>
      <point x="182" y="734" type="curve" smooth="yes"></point>
      <point x="213" y="734"></point>
      <point x="240" y="707.892"></point>
    </contour>
    <contour>
      <point x="430" y="675" type="curve" smooth="yes"></point>
      <point x="430" y="642.1"></point>
      <point x="403" y="616"></point>
      <point x="372" y="616" type="curve" smooth="yes"></point>
      <point x="340" y="616"></point>
      <point x="314" y="642.108"></point>
      <point x="314" y="675" type="curve" smooth="yes"></point>
      <point x="314" y="707.9"></point>
      <point x="340" y="734"></point>
      <point x="372" y="734" type="curve" smooth="yes"></point>
      <point x="403" y="734"></point>
      <point x="430" y="707.892"></point>
    </contour>
  </outline>
</glyph>
<glyph name="copyright" format="1">
  <advance width="787"></advance>
  <unicode hex="00A9"></unicode>
  <outline>
    <contour>
      <point x="729" y="347" type="curve" smooth="yes"></point>
      <point x="729" y="229.921"></point>
      <point x="685" y="139.81"></point>
      <point x="626" y="80.5" type="curve" smooth="yes"></point>
      <point x="570" y="25.9644"></point>
      <point x="489" y="-15"></point>
      <point x="387" y="-15" type="curve" smooth="yes"></point>
      <point x="284" y="-15"></point>
      <point x="203" y="26.0271"></point>
      <point x="148" y="80.5" type="curve" smooth="yes"></point>
      <point x="88" y="139.833"></point>
      <point x="45" y="229.894"></point>
      <point x="45" y="347" type="curve" smooth="yes"></point>
      <point x="45" y="464.079"></point>
      <point x="88" y="554.19"></point>
      <point x="148" y="613.5" type="curve" smooth="yes"></point>
      <point x="203" y="668.036"></point>
      <point x="284" y="709"></point>
      <point x="387" y="709" type="curve" smooth="yes"></point>
      <point x="489" y="709"></point>
      <point x="570" y="667.973"></point>
      <point x="626" y="613.5" type="curve" smooth="yes"></point>
      <point x="685" y="554.167"></point>
      <point x="729" y="464.106"></point>
    </contour>
    <contour>
      <point x="656" y="347" type="curve" smooth="yes"></point>
      <point x="656" y="483.711"></point>
      <point x="592" y="580.008"></point>
      <point x="495" y="621" type="curve" smooth="yes"></point>
      <point x="462" y="635"></point>
      <point x="426" y="642"></point>
      <point x="387" y="642" type="curve" smooth="yes"></point>
      <point x="254" y="642"></point>
      <point x="174" y="566.376"></point>
      <point x="138" y="467.5" type="curve" smooth="yes"></point>
      <point x="124" y="431.167"></point>
      <point x="118" y="391"></point>
      <point x="118" y="347" type="curve" smooth="yes"></point>
      <point x="118" y="210.289"></point>
      <point x="181" y="113.992"></point>
      <point x="278" y="73" type="curve" smooth="yes"></point>
      <point x="311" y="59"></point>
      <point x="347" y="52"></point>
      <point x="387" y="52" type="curve" smooth="yes"></point>
      <point x="519" y="52"></point>
      <point x="599" y="127.624"></point>
      <point x="636" y="226.5" type="curve" smooth="yes"></point>
      <point x="649" y="262.833"></point>
      <point x="656" y="303"></point>
    </contour>
    <contour>
      <point x="528" y="170" type="line"></point>
      <point x="497" y="151.498"></point>
      <point x="449" y="140"></point>
      <point x="399" y="140" type="curve" smooth="yes"></point>
      <point x="305" y="140"></point>
      <point x="246" y="188.532"></point>
      <point x="221" y="258.5" type="curve" smooth="yes"></point>
      <point x="211" y="284.167"></point>
      <point x="207" y="313.667"></point>
      <point x="207" y="347" type="curve" smooth="yes"></point>
      <point x="207" y="444.788"></point>
      <point x="255" y="511.035"></point>
      <point x="325" y="539" type="curve" smooth="yes"></point>
      <point x="348" y="548.333"></point>
      <point x="373" y="553"></point>
      <point x="399" y="553" type="curve" smooth="yes"></point>
      <point x="449" y="553"></point>
      <point x="496" y="541.348"></point>
      <point x="525" y="520" type="curve"></point>
      <point x="502" y="460" type="line"></point>
      <point x="480" y="472.627"></point>
      <point x="440" y="486"></point>
      <point x="402" y="486" type="curve" smooth="yes"></point>
      <point x="325" y="486"></point>
      <point x="283" y="428.27"></point>
      <point x="283" y="347" type="curve" smooth="yes"></point>
      <point x="283" y="265.902"></point>
      <point x="324" y="206"></point>
      <point x="405" y="206" type="curve" smooth="yes"></point>
      <point x="448" y="206"></point>
      <point x="483" y="217.161"></point>
      <point x="509" y="230" type="curve"></point>
    </contour>
  </outline>
</glyph>
<glyph name="ordfeminine" format="1">
  <advance width="434"></advance>
  <unicode hex="00AA"></unicode>
  <outline>
    <contour>
      <point x="127" y="446" type="curve" smooth="yes"></point>
      <point x="127" y="401.618"></point>
      <point x="167" y="391"></point>
      <point x="215" y="391" type="curve" smooth="yes"></point>
      <point x="220" y="391"></point>
      <point x="226" y="390.931"></point>
      <point x="234" y="390.931" type="curve" smooth="yes"></point>
      <point x="253" y="390.931"></point>
      <point x="277" y="391.42"></point>
      <point x="286" y="395" type="curve"></point>
      <point x="286" y="495" type="line"></point>
      <point x="270" y="497.8"></point>
      <point x="243" y="499"></point>
      <point x="225" y="499" type="curve" smooth="yes"></point>
      <point x="179" y="499"></point>
      <point x="127" y="490.795"></point>
    </contour>
    <contour>
      <point x="96" y="691" type="line"></point>
      <point x="124" y="698.382"></point>
      <point x="170" y="706"></point>
      <point x="208" y="706" type="curve" smooth="yes"></point>
      <point x="304" y="706"></point>
      <point x="355" y="662.818"></point>
      <point x="355" y="567" type="curve" smooth="yes"></point>
      <point x="355" y="343" type="line"></point>
      <point x="318" y="335.471"></point>
      <point x="254" y="329"></point>
      <point x="208" y="329" type="curve" smooth="yes"></point>
      <point x="121" y="329"></point>
      <point x="57" y="360.093"></point>
      <point x="57" y="446" type="curve" smooth="yes"></point>
      <point x="57" y="531.742"></point>
      <point x="131" y="560"></point>
      <point x="217" y="560" type="curve" smooth="yes"></point>
      <point x="240" y="560"></point>
      <point x="262" y="558.381"></point>
      <point x="286" y="555" type="curve"></point>
      <point x="286" y="558" type="line" smooth="yes"></point>
      <point x="286" y="612.785"></point>
      <point x="260" y="641"></point>
      <point x="204" y="641" type="curve" smooth="yes"></point>
      <point x="172" y="641"></point>
      <point x="130" y="636.413"></point>
      <point x="106" y="628" type="curve"></point>
    </contour>
  </outline>
</glyph>
<glyph name="guillemotleft" format="1">
  <advance width="429"></advance>
  <unicode hex="00AB"></unicode>
  <outline>
    <contour>
      <point x="208" y="284" type="line"></point>
      <point x="364" y="505" type="line"></point>
      <point x="429" y="470" type="line"></point>
      <point x="318" y="284" type="line"></point>
      <point x="429" y="98" type="line"></point>
      <point x="364" y="63" type="line"></point>
    </contour>
    <contour>
      <point x="0" y="284" type="line"></point>
      <point x="156" y="505" type="line"></point>
      <point x="221" y="470" type="line"></point>
      <point x="110" y="284" type="line"></point>
      <point x="221" y="98" type="line"></point>
      <point x="156" y="63" type="line"></point>
    </contour>
  </outline>
</glyph>
<glyph name="logicalnot" format="1">
  <advance width="595"></advance>
  <unicode hex="00AC"></unicode>
  <outline>
    <contour>
      <point x="517" y="394" type="line"></point>
      <point x="517" y="53" type="line"></point>
      <point x="437" y="53" type="line"></point>
      <point x="437" y="315" type="line"></point>
      <point x="59" y="315" type="line"></point>
      <point x="59" y="394" type="line"></point>
    </contour>
  </outline>
</glyph>
<glyph name="registered" format="1">
  <advance width="786"></advance>
  <unicode hex="00AE"></unicode>
  <outline>
    <contour>
      <point x="732" y="347" type="curve" smooth="yes"></point>
      <point x="732" y="229.921"></point>
      <point x="688" y="139.81"></point>
      <point x="629" y="80.5" type="curve" smooth="yes"></point>
      <point x="573" y="25.9644"></point>
      <point x="492" y="-15"></point>
      <point x="390" y="-15" type="curve" smooth="yes"></point>
      <point x="287" y="-15"></point>
      <point x="206" y="26.0271"></point>
      <point x="151" y="80.5" type="curve" smooth="yes"></point>
      <point x="91" y="139.833"></point>
      <point x="48" y="229.894"></point>
      <point x="48" y="347" type="curve" smooth="yes"></point>
      <point x="48" y="464.079"></point>
      <point x="91" y="554.19"></point>
      <point x="151" y="613.5" type="curve" smooth="yes"></point>
      <point x="206" y="668.036"></point>
      <point x="287" y="709"></point>
      <point x="390" y="709" type="curve" smooth="yes"></point>
      <point x="492" y="709"></point>
      <point x="573" y="667.973"></point>
      <point x="629" y="613.5" type="curve" smooth="yes"></point>
      <point x="688" y="554.167"></point>
      <point x="732" y="464.106"></point>
    </contour>
    <contour>
      <point x="659" y="347" type="curve" smooth="yes"></point>
      <point x="659" y="483.711"></point>
      <point x="595" y="580.008"></point>
      <point x="498" y="621" type="curve" smooth="yes"></point>
      <point x="465" y="635"></point>
      <point x="429" y="642"></point>
      <point x="390" y="642" type="curve" smooth="yes"></point>
      <point x="257" y="642"></point>
      <point x="177" y="566.376"></point>
      <point x="141" y="467.5" type="curve" smooth="yes"></point>
      <point x="127" y="431.167"></point>
      <point x="121" y="391"></point>
      <point x="121" y="347" type="curve" smooth="yes"></point>
      <point x="121" y="210.289"></point>
      <point x="184" y="113.992"></point>
      <point x="281" y="73" type="curve" smooth="yes"></point>
      <point x="314" y="59"></point>
      <point x="350" y="52"></point>
      <point x="390" y="52" type="curve" smooth="yes"></point>
      <point x="522" y="52"></point>
      <point x="602" y="127.624"></point>
      <point x="639" y="226.5" type="curve" smooth="yes"></point>
      <point x="652" y="262.833"></point>
      <point x="659" y="303"></point>
    </contour>
    <contour>
      <point x="538" y="419" type="curve" smooth="yes"></point>
      <point x="538" y="363.486"></point>
      <point x="505" y="329.512"></point>
      <point x="463" y="312" type="curve"></point>
      <point x="490" y="278.591"></point>
      <point x="517" y="236.203"></point>
      <point x="541" y="196" type="curve" smooth="yes"></point>
      <point x="550" y="180"></point>
      <point x="558" y="164"></point>
      <point x="566" y="148" type="curve"></point>
      <point x="489" y="148" type="line"></point>
      <point x="463" y="198.723"></point>
      <point x="421" y="260.173"></point>
      <point x="388" y="298" type="curve"></point>
      <point x="321" y="298" type="line"></point>
      <point x="321" y="148" type="line"></point>
      <point x="250" y="148" type="line"></point>
      <point x="250" y="536" type="line"></point>
      <point x="281" y="543.068"></point>
      <point x="325" y="548"></point>
      <point x="362" y="548" type="curve" smooth="yes"></point>
      <point x="464" y="548"></point>
      <point x="538" y="514.889"></point>
    </contour>
    <contour>
      <point x="367" y="486" type="curve" smooth="yes"></point>
      <point x="352" y="486"></point>
      <point x="334" y="485.269"></point>
      <point x="321" y="484" type="curve"></point>
      <point x="321" y="356" type="line"></point>
      <point x="359" y="356" type="line" smooth="yes"></point>
      <point x="414" y="356"></point>
      <point x="464" y="365.41"></point>
      <point x="464" y="420" type="curve" smooth="yes"></point>
      <point x="464" y="470.753"></point>
      <point x="417" y="486"></point>
    </contour>
  </outline>
</glyph>
<glyph name="macron" format="1">
  <advance width="437"></advance>
  <unicode hex="00AF"></unicode>
  <outline>
    <contour>
      <point x="119" y="711" type="line"></point>
      <point x="403" y="711" type="line"></point>
      <point x="403" y="639" type="line"></point>
      <point x="119" y="639" type="line"></point>
    </contour>
  </outline>
</glyph>
<glyph name="degree" format="1">
  <advance width="380"></advance>
  <unicode hex="00B0"></unicode>
  <outline>
    <contour>
      <point x="328" y="637" type="curve" smooth="yes"></point>
      <point x="328" y="570.24"></point>
      <point x="290" y="525.774"></point>
      <point x="241" y="507.5" type="curve" smooth="yes"></point>
      <point x="224" y="501.167"></point>
      <point x="206" y="498"></point>
      <point x="188" y="498" type="curve" smooth="yes"></point>
      <point x="122" y="498"></point>
      <point x="79" y="532.718"></point>
      <point x="59" y="579" type="curve" smooth="yes"></point>
      <point x="51" y="596.333"></point>
      <point x="48" y="615.667"></point>
      <point x="48" y="637" type="curve" smooth="yes"></point>
      <point x="48" y="703.76"></point>
      <point x="85" y="748.226"></point>
      <point x="134" y="766.5" type="curve" smooth="yes"></point>
      <point x="151" y="772.833"></point>
      <point x="169" y="776"></point>
      <point x="188" y="776" type="curve" smooth="yes"></point>
      <point x="253" y="776"></point>
      <point x="296" y="741.282"></point>
      <point x="316" y="695" type="curve" smooth="yes"></point>
      <point x="324" y="677.667"></point>
      <point x="328" y="658.333"></point>
    </contour>
    <contour>
      <point x="188" y="561" type="curve" smooth="yes"></point>
      <point x="230" y="561"></point>
      <point x="261" y="593.147"></point>
      <point x="261" y="637" type="curve" smooth="yes"></point>
      <point x="261" y="680.866"></point>
      <point x="230" y="713"></point>
      <point x="188" y="713" type="curve" smooth="yes"></point>
      <point x="145" y="713"></point>
      <point x="115" y="680.853"></point>
      <point x="115" y="637" type="curve" smooth="yes"></point>
      <point x="115" y="593.134"></point>
      <point x="145" y="561"></point>
    </contour>
  </outline>
</glyph>
<glyph name="plusminus" format="1">
  <advance width="546"></advance>
  <unicode hex="00B1"></unicode>
  <outline>
    <contour>
      <point x="48" y="419" type="line"></point>
      <point x="237" y="419" type="line"></point>
      <point x="237" y="620" type="line"></point>
      <point x="317" y="620" type="line"></point>
      <point x="317" y="419" type="line"></point>
      <point x="506" y="419" type="line"></point>
      <point x="506" y="340" type="line"></point>
      <point x="317" y="340" type="line"></point>
      <point x="317" y="139" type="line"></point>
      <point x="237" y="139" type="line"></point>
      <point x="237" y="340" type="line"></point>
      <point x="48" y="340" type="line"></point>
    </contour>
    <contour>
      <point x="48" y="79" type="line"></point>
      <point x="506" y="79" type="line"></point>
      <point x="506" y="0" type="line"></point>
      <point x="48" y="0" type="line"></point>
    </contour>
  </outline>
</glyph>
<glyph name="twosuperior" format="1">
  <advance width="379"></advance>
  <unicode hex="00B2"></unicode>
  <outline>
    <contour>
      <point x="177" y="709" type="curve" smooth="yes"></point>
      <point x="260" y="709"></point>
      <point x="312" y="676.149"></point>
      <point x="312" y="598" type="curve" smooth="yes"></point>
      <point x="312" y="564.109"></point>
      <point x="294" y="538.619"></point>
      <point x="277" y="517.5" type="curve" smooth="yes"></point>
      <point x="243" y="477.255"></point>
      <point x="199" y="445.181"></point>
      <point x="161" y="407.5" type="curve" smooth="yes"></point>
      <point x="150" y="396.5"></point>
      <point x="144" y="386.667"></point>
      <point x="142" y="378" type="curve"></point>
      <point x="328" y="378" type="line"></point>
      <point x="328" y="315" type="line"></point>
      <point x="62" y="315" type="line"></point>
      <point x="61" y="321.169"></point>
      <point x="61" y="327.116"></point>
      <point x="61" y="332.856" type="curve" smooth="yes"></point>
      <point x="61" y="414.172"></point>
      <point x="115" y="453.948"></point>
      <point x="162" y="494" type="curve" smooth="yes"></point>
      <point x="184" y="513.333"></point>
      <point x="203" y="531.167"></point>
      <point x="217" y="547.5" type="curve" smooth="yes"></point>
      <point x="231" y="563.833"></point>
      <point x="239" y="580"></point>
      <point x="239" y="596" type="curve" smooth="yes"></point>
      <point x="239" y="632.081"></point>
      <point x="213" y="646"></point>
      <point x="177" y="646" type="curve" smooth="yes"></point>
      <point x="135" y="646"></point>
      <point x="104" y="625.312"></point>
      <point x="82" y="607" type="curve"></point>
      <point x="46" y="656" type="line"></point>
      <point x="71" y="682.724"></point>
      <point x="122" y="709"></point>
    </contour>
  </outline>
</glyph>
<glyph name="threesuperior" format="1">
  <advance width="398"></advance>
  <unicode hex="00B3"></unicode>
  <outline>
    <contour>
      <point x="71" y="390" type="line"></point>
      <point x="98" y="379.988"></point>
      <point x="131" y="369"></point>
      <point x="168" y="369" type="curve" smooth="yes"></point>
      <point x="203" y="369"></point>
      <point x="227" y="374.5"></point>
      <point x="241" y="385.5" type="curve" smooth="yes"></point>
      <point x="254" y="396.5"></point>
      <point x="261" y="410.667"></point>
      <point x="261" y="428" type="curve" smooth="yes"></point>
      <point x="261" y="478.352"></point>
      <point x="202" y="491"></point>
      <point x="151" y="491" type="curve" smooth="yes"></point>
      <point x="132" y="491" type="line"></point>
      <point x="132" y="548" type="line"></point>
      <point x="157" y="548" type="line" smooth="yes"></point>
      <point x="198" y="548"></point>
      <point x="243" y="559.763"></point>
      <point x="243" y="601" type="curve" smooth="yes"></point>
      <point x="243" y="636.093"></point>
      <point x="212" y="647"></point>
      <point x="177" y="647" type="curve" smooth="yes"></point>
      <point x="142" y="647"></point>
      <point x="110" y="630.895"></point>
      <point x="87" y="620" type="curve"></point>
      <point x="62" y="675" type="line"></point>
      <point x="84" y="690.645"></point>
      <point x="138" y="709"></point>
      <point x="179" y="709" type="curve" smooth="yes"></point>
      <point x="227" y="709"></point>
      <point x="262" y="699.167"></point>
      <point x="282" y="679.5" type="curve" smooth="yes"></point>
      <point x="302" y="659.833"></point>
      <point x="313" y="634.667"></point>
      <point x="313" y="604" type="curve" smooth="yes"></point>
      <point x="313" y="571.333"></point>
      <point x="294" y="544.667"></point>
      <point x="258" y="524" type="curve"></point>
      <point x="299" y="510.964"></point>
      <point x="334" y="478.53"></point>
      <point x="334" y="427" type="curve" smooth="yes"></point>
      <point x="334" y="337.575"></point>
      <point x="260" y="307"></point>
      <point x="169" y="307" type="curve" smooth="yes"></point>
      <point x="130" y="307"></point>
      <point x="80" y="317.774"></point>
      <point x="56" y="330" type="curve"></point>
    </contour>
  </outline>
</glyph>
<glyph name="acute" format="1">
  <advance width="341"></advance>
  <unicode hex="00B4"></unicode>
  <outline>
    <contour>
      <point x="293" y="717" type="line"></point>
      <point x="152" y="580" type="line"></point>
      <point x="105" y="622" type="line"></point>
      <point x="233" y="776" type="line"></point>
    </contour>
  </outline>
</glyph>
<glyph name="mu" format="1">
  <advance width="572"></advance>
  <unicode hex="00B5"></unicode>
  <outline>
    <contour>
      <point x="164" y="34" type="curve"></point>
      <point x="168" y="-3.54538"></point>
      <point x="169" y="-40.4537"></point>
      <point x="169" y="-82" type="curve" smooth="yes"></point>
      <point x="169" y="-185" type="line"></point>
      <point x="77" y="-185" type="line"></point>
      <point x="77" y="520" type="line"></point>
      <point x="170" y="520" type="line"></point>
      <point x="170" y="242" type="line" smooth="yes"></point>
      <point x="170" y="129.173"></point>
      <point x="197" y="71"></point>
      <point x="301" y="71" type="curve" smooth="yes"></point>
      <point x="330" y="71"></point>
      <point x="361" y="74.111"></point>
      <point x="387" y="77.5" type="curve" smooth="yes"></point>
      <point x="395" y="78.5"></point>
      <point x="400" y="79.6667"></point>
      <point x="404" y="81" type="curve"></point>
      <point x="404" y="520" type="line"></point>
      <point x="497" y="520" type="line"></point>
      <point x="497" y="15" type="line"></point>
      <point x="446" y="2.29499"></point>
      <point x="373" y="-11"></point>
      <point x="304" y="-11" type="curve" smooth="yes"></point>
      <point x="236" y="-11"></point>
      <point x="194" y="0.906643"></point>
    </contour>
  </outline>
</glyph>
<glyph name="paragraph" format="1">
  <advance width="591"></advance>
  <unicode hex="00B6"></unicode>
  <outline>
    <contour>
      <point x="444" y="618" type="line"></point>
      <point x="421" y="621.248"></point>
      <point x="391" y="623"></point>
      <point x="363" y="623" type="curve" smooth="yes"></point>
      <point x="353" y="623"></point>
      <point x="341" y="622.379"></point>
      <point x="333" y="621" type="curve"></point>
      <point x="333" y="-185" type="line"></point>
      <point x="255" y="-185" type="line"></point>
      <point x="255" y="262" type="line"></point>
      <point x="118" y="275.576"></point>
      <point x="20" y="333.975"></point>
      <point x="20" y="479" type="curve" smooth="yes"></point>
      <point x="20" y="559.176"></point>
      <point x="56" y="610.151"></point>
      <point x="107" y="644" type="curve" smooth="yes"></point>
      <point x="164" y="682.035"></point>
      <point x="246" y="700"></point>
      <point x="343" y="700" type="curve" smooth="yes"></point>
      <point x="402" y="700"></point>
      <point x="472" y="695.082"></point>
      <point x="522" y="683" type="curve"></point>
      <point x="522" y="-185" type="line"></point>
      <point x="444" y="-185" type="line"></point>
    </contour>
  </outline>
</glyph>
<glyph name="cedilla" format="1">
  <advance width="412"></advance>
  <unicode hex="00B8"></unicode>
  <outline>
    <contour>
      <point x="288" y="20" type="line"></point>
      <point x="280" y="6.51331"></point>
      <point x="265" y="-22.2448"></point>
      <point x="259" y="-37" type="curve"></point>
      <point x="293" y="-53.7448"></point>
      <point x="314" y="-68.5362"></point>
      <point x="314" y="-116" type="curve" smooth="yes"></point>
      <point x="314" y="-167.458"></point>
      <point x="264" y="-189"></point>
      <point x="211" y="-189" type="curve" smooth="yes"></point>
      <point x="180" y="-189"></point>
      <point x="149" y="-183.813"></point>
      <point x="129" y="-176" type="curve"></point>
      <point x="140" y="-119" type="line"></point>
      <point x="156" y="-124.512"></point>
      <point x="173" y="-129"></point>
      <point x="196" y="-129" type="curve" smooth="yes"></point>
      <point x="220" y="-129"></point>
      <point x="232" y="-121.333"></point>
      <point x="232" y="-106" type="curve" smooth="yes"></point>
      <point x="232" y="-84.8253"></point>
      <point x="201" y="-77.0445"></point>
      <point x="183" y="-69" type="curve"></point>
      <point x="191" y="-39.1197"></point>
      <point x="209" y="-4.60244"></point>
      <point x="224" y="20" type="curve"></point>
    </contour>
  </outline>
</glyph>
<glyph name="onesuperior" format="1">
  <advance width="412"></advance>
  <unicode hex="00B9"></unicode>
  <outline>
    <contour>
      <point x="129" y="621" type="line"></point>
      <point x="179" y="638.379"></point>
      <point x="233" y="667.334"></point>
      <point x="268" y="701" type="curve"></point>
      <point x="317" y="701" type="line"></point>
      <point x="317" y="315" type="line"></point>
      <point x="247" y="315" type="line"></point>
      <point x="247" y="609" type="line"></point>
      <point x="221" y="593.08"></point>
      <point x="177" y="575.975"></point>
      <point x="148" y="567" type="curve"></point>
    </contour>
  </outline>
</glyph>
<glyph name="ordmasculine" format="1">
  <advance width="360"></advance>
  <unicode hex="00BA"></unicode>
  <outline>
    <contour>
      <point x="360" y="518" type="curve" smooth="yes"></point>
      <point x="360" y="428.431"></point>
      <point x="316" y="367.701"></point>
      <point x="252" y="341.5" type="curve" smooth="yes"></point>
      <point x="230" y="332.5"></point>
      <point x="206" y="328"></point>
      <point x="180" y="328" type="curve" smooth="yes"></point>
      <point x="93" y="328"></point>
      <point x="38" y="376.053"></point>
      <point x="13" y="440" type="curve" smooth="yes"></point>
      <point x="4" y="463.333"></point>
      <point x="0" y="489.333"></point>
      <point x="0" y="518" type="curve" smooth="yes"></point>
      <point x="0" y="608.176"></point>
      <point x="43" y="668.145"></point>
      <point x="108" y="694.5" type="curve" smooth="yes"></point>
      <point x="130" y="703.5"></point>
      <point x="154" y="708"></point>
      <point x="180" y="708" type="curve" smooth="yes"></point>
      <point x="266" y="708"></point>
      <point x="322" y="660.572"></point>
      <point x="346" y="596.5" type="curve" smooth="yes"></point>
      <point x="355" y="572.833"></point>
      <point x="360" y="546.667"></point>
    </contour>
    <contour>
      <point x="180" y="395" type="curve" smooth="yes"></point>
      <point x="249" y="395"></point>
      <point x="286" y="447.263"></point>
      <point x="286" y="518" type="curve" smooth="yes"></point>
      <point x="286" y="589.585"></point>
      <point x="250" y="641"></point>
      <point x="180" y="641" type="curve" smooth="yes"></point>
      <point x="110" y="641"></point>
      <point x="74" y="589.011"></point>
      <point x="74" y="518" type="curve" smooth="yes"></point>
      <point x="74" y="447.251"></point>
      <point x="110" y="395"></point>
    </contour>
  </outline>
</glyph>
<glyph name="guillemotright" format="1">
  <advance width="473"></advance>
  <unicode hex="00BB"></unicode>
  <outline>
    <contour>
      <point x="299" y="63" type="line"></point>
      <point x="234" y="98" type="line"></point>
      <point x="345" y="284" type="line"></point>
      <point x="234" y="470" type="line"></point>
      <point x="299" y="505" type="line"></point>
      <point x="455" y="284" type="line"></point>
    </contour>
    <contour>
      <point x="91" y="63" type="line"></point>
      <point x="26" y="98" type="line"></point>
      <point x="137" y="284" type="line"></point>
      <point x="26" y="470" type="line"></point>
      <point x="91" y="505" type="line"></point>
      <point x="247" y="284" type="line"></point>
    </contour>
  </outline>
</glyph>
<glyph name="onequarter" format="1">
  <advance width="686"></advance>
  <unicode hex="00BC"></unicode>
  <outline>
    <component base="onesuperior"></component>
    <contour>
      <point x="592" y="389" type="line"></point>
      <point x="592" y="155" type="line"></point>
      <point x="642" y="155" type="line"></point>
      <point x="642" y="96" type="line"></point>
      <point x="592" y="96" type="line"></point>
      <point x="592" y="3" type="line"></point>
      <point x="524" y="3" type="line"></point>
      <point x="524" y="96" type="line"></point>
      <point x="331" y="96" type="line"></point>
      <point x="331" y="142" type="line"></point>
      <point x="367" y="207.657"></point>
      <point x="420" y="275.511"></point>
      <point x="470" y="331.5" type="curve" smooth="yes"></point>
      <point x="489" y="353.167"></point>
      <point x="508" y="372.333"></point>
      <point x="528" y="389" type="curve"></point>
    </contour>
    <contour>
      <point x="524" y="306" type="line"></point>
      <point x="484" y="264.92"></point>
      <point x="436" y="205.097"></point>
      <point x="406" y="155" type="curve"></point>
      <point x="524" y="155" type="line"></point>
    </contour>
    <contour>
      <point x="466" y="693" type="line"></point>
      <point x="75" y="0" type="line"></point>
      <point x="-11" y="0" type="line"></point>
      <point x="379" y="693" type="line"></point>
    </contour>
  </outline>
</glyph>
<glyph name="onehalf" format="1">
  <advance width="480"></advance>
  <unicode hex="00BD"></unicode>
  <outline>
    <component base="onesuperior"></component>
    <component base="twosuperior" xOffset="515" yOffset="-312"></component>
    <contour>
      <point x="484" y="693" type="line"></point>
      <point x="93" y="0" type="line"></point>
      <point x="6" y="0" type="line"></point>
      <point x="397" y="693" type="line"></point>
    </contour>
  </outline>
</glyph>
<glyph name="threequarters" format="1">
  <advance width="644"></advance>
  <unicode hex="00BE"></unicode>
  <outline>
    <component base="threesuperior"></component>
    <contour>
      <point x="574" y="389" type="line"></point>
      <point x="574" y="155" type="line"></point>
      <point x="624" y="155" type="line"></point>
      <point x="624" y="96" type="line"></point>
      <point x="574" y="96" type="line"></point>
      <point x="574" y="3" type="line"></point>
      <point x="506" y="3" type="line"></point>
      <point x="506" y="96" type="line"></point>
      <point x="313" y="96" type="line"></point>
      <point x="313" y="142" type="line"></point>
      <point x="349" y="207.657"></point>
      <point x="402" y="275.511"></point>
      <point x="452" y="331.5" type="curve" smooth="yes"></point>
      <point x="471" y="353.167"></point>
      <point x="490" y="372.333"></point>
      <point x="510" y="389" type="curve"></point>
    </contour>
    <contour>
      <point x="506" y="306" type="line"></point>
      <point x="466" y="264.92"></point>
      <point x="418" y="205.097"></point>
      <point x="388" y="155" type="curve"></point>
      <point x="506" y="155" type="line"></point>
    </contour>
    <contour>
      <point x="463" y="693" type="line"></point>
      <point x="72" y="0" type="line"></point>
      <point x="-14" y="0" type="line"></point>
      <point x="376" y="693" type="line"></point>
    </contour>
  </outline>
</glyph>
